<svg width="25" height="26" viewBox="0 0 25 26" fill="none" xmlns="http://www.w3.org/2000/svg">
<path d="M21.2213 24.906C20.5735 24.906 20.0483 24.3808 20.0483 23.7331V14.3581C20.0483 13.7103 20.5735 13.1852 21.2213 13.1852C21.869 13.1852 22.3942 13.7103 22.3942 14.3581V23.7331C22.3942 24.3809 21.869 24.906 21.2213 24.906Z" fill="#FED15B"/>
<path d="M18.3687 24.906C17.721 24.906 17.1917 24.3808 17.1917 23.7331V14.3581C17.1917 13.7103 17.721 13.1852 18.3687 13.1852C19.0165 13.1852 19.5416 13.7103 19.5416 14.3581V23.7331C19.5416 24.3809 19.0165 24.906 18.3687 24.906Z" fill="#FED15B"/>
<path d="M20.1169 4.32278C21.2211 4.14378 21.9712 3.10354 21.7922 1.99932C21.6132 0.895114 20.5729 0.145083 19.4687 0.324084C18.3645 0.503085 17.6145 1.54333 17.7935 2.64754C17.9725 3.75175 19.0127 4.50179 20.1169 4.32278Z" fill="#FFDFBA"/>
<path d="M15.8302 13.9865L14.8185 14.4783C14.8185 15.0181 15.2561 15.4557 15.7959 15.4557C16.3357 15.4557 16.7733 15.0181 16.7733 14.4783L15.8302 13.9865Z" fill="#FFDFBA"/>
<path d="M20.8212 4.99127H18.8066L18.7835 5.11199C18.6611 5.7538 19.1531 6.34853 19.8065 6.34853C20.4232 6.34853 20.9048 5.81566 20.8426 5.20213L20.8212 4.99127Z" fill="#FFDFBA"/>
<path d="M23.8093 14.0056L22.8129 14.4783C22.8129 15.0181 23.2505 15.4557 23.7903 15.4557C24.33 15.4557 24.7677 15.0181 24.7677 14.4783L23.8093 14.0056Z" fill="#FFDFBA"/>
<path d="M22.4188 4.99127H20.8214C20.8393 5.53121 20.3375 5.98917 19.8136 5.98917C19.252 5.98917 18.8358 5.53291 18.8068 4.99127H17.1715C15.8805 4.99127 14.825 6.02367 14.8186 7.2976V14.4782H16.7734V7.30252C16.7744 7.11597 16.9842 6.94607 17.1916 6.94607V11.892L17.4356 12.2165L17.1916 12.5379V14.3581H22.3941L22.3919 12.5355L22.2516 12.2126L22.3911 11.8896L22.385 6.94607H22.4187C22.6241 6.94607 22.812 7.11597 22.813 7.29755V14.4782H24.7678V7.29269C24.7614 6.02372 23.7076 4.99127 22.4188 4.99127Z" fill="#86D6DD"/>
<path d="M17.1917 11.892H18.7909V12.5379H17.1917V11.892Z" fill="white"/>
<path d="M20.7887 11.892H22.3845V12.5379H20.7887V11.892Z" fill="white"/>
<path d="M21.9377 2.56744H21.4198V2.25953C21.4198 2.03568 21.2384 1.85425 21.0145 1.85425H18.5575C18.3337 1.85425 18.1522 2.03568 18.1522 2.25953V2.56744H17.6935C17.6039 2.56744 17.5314 2.64004 17.5314 2.72952V3.15736C17.5314 3.2469 17.604 3.31944 17.6935 3.31944H18.1522V3.62736C18.1522 3.85121 18.3337 4.03264 18.5575 4.03264H21.0146C21.2384 4.03264 21.4199 3.85121 21.4199 3.62736V3.31944H21.9377C22.0273 3.31944 22.0998 3.24685 22.0998 3.15736V2.72952C22.0998 2.63999 22.0272 2.56744 21.9377 2.56744Z" fill="#E9F5FF"/>
<path d="M5.48292 13.1177H2.6902C1.20681 13.1177 0 11.9109 0 10.4275V3.24628C0 1.76289 1.20681 0.55603 2.6902 0.55603H6.96476C8.4482 0.55603 9.65501 1.76284 9.65501 3.24628H8.60602C8.60602 2.34128 7.86972 1.60502 6.96476 1.60502H2.6902C1.78519 1.60502 1.04899 2.34128 1.04899 3.24628V10.4275C1.04899 11.3325 1.78524 12.0687 2.6902 12.0687H5.48292V13.1177Z" fill="#ABD1F3"/>
<path d="M13.238 25.1875C12.894 25.1875 12.615 24.9085 12.615 24.5644V18.324C12.615 17.9799 12.8939 17.701 13.238 17.701C13.5822 17.701 13.8611 17.9799 13.8611 18.324V24.5645C13.8611 24.9086 13.5821 25.1875 13.238 25.1875Z" fill="#ABD1F3"/>
<path d="M11.9577 4.79497C11.9406 4.02211 11.4313 3.3648 10.7307 3.21144L7.69631 2.50928C6.9957 2.35587 6.29015 2.74715 5.99645 3.45197L5.81916 3.87742C5.69624 4.17234 5.85839 4.51431 6.15153 4.57855L11.4097 5.76757C11.7028 5.83176 11.9752 5.58492 11.968 5.26152L11.9577 4.79497Z" fill="#ABD1F3"/>
<path d="M20.1128 18.7413C19.9437 18.7413 19.773 18.6912 19.6239 18.587L16.6101 16.4791H11.051C10.5791 16.4791 10.1967 16.0966 10.1967 15.6248C10.1967 15.1529 10.5791 14.7704 11.051 14.7704H16.8792C17.0544 14.7704 17.2253 14.8242 17.3689 14.9246L20.6032 17.1868C20.9899 17.4572 21.0841 17.9899 20.8137 18.3765C20.6475 18.6141 20.3823 18.7413 20.1128 18.7413Z" fill="#3C7CBB"/>
<path d="M10.8 10.2963C10.5007 9.87637 9.91791 9.77898 9.49849 10.0786L7.8197 11.094C7.40024 11.3937 7.30289 11.977 7.60226 12.3968L10.2662 16.0953L14.0318 14.8133L10.8 10.2963Z" fill="#3C7CBB"/>
<path d="M9.24421 9.24643C9.857 8.27855 9.56916 6.99716 8.60128 6.38436C7.6334 5.77156 6.35201 6.05941 5.73921 7.02729C5.12641 7.99516 5.41426 9.27656 6.38214 9.88936C7.35002 10.5022 8.63141 10.2143 9.24421 9.24643Z" fill="#FFDFBA"/>
<path d="M15.1186 12.7196H15.1151L12.2298 12.7323L11.4249 12.0255L10.5433 12.1215C10.5311 12.1108 10.3734 13.1303 10.3734 13.1303L11.4415 14.0681C11.5805 14.1902 11.7592 14.2575 11.9442 14.2575H11.9475L15.1218 14.2435C15.5426 14.2417 15.8822 13.899 15.8803 13.4782C15.8785 13.0585 15.5378 12.7196 15.1186 12.7196Z" fill="#FFDFBA"/>
<path d="M11.4249 12.0256L10.0491 10.8176C9.73294 10.5399 9.25141 10.5712 8.97382 10.8874C8.69618 11.2037 8.72742 11.6851 9.04366 11.9627L10.3735 13.1304L11.4249 12.0256Z" fill="#3C7CBB"/>
<path d="M20.7992 22.1806C20.6207 22.1806 20.4407 22.126 20.2855 22.0127L15.9255 18.8295H9.78155C9.49734 18.8295 9.23094 18.691 9.06765 18.4583L3.25119 10.1723C2.97441 9.77799 3.06966 9.234 3.46396 8.95726C3.85816 8.68048 4.40225 8.77568 4.67899 9.17003L10.2349 17.0849H16.2101C16.395 17.0849 16.5751 17.1437 16.7245 17.2527L21.3143 20.6037C21.7033 20.8878 21.7884 21.4335 21.5044 21.8226C21.3336 22.0565 21.0681 22.1805 20.7992 22.1806Z" fill="#ABD1F3"/>
<path d="M13.2064 23.9365C11.383 23.9365 9.90479 24.8172 9.90479 25.238C9.90479 25.6588 11.383 26 13.2064 26C15.0298 26 16.508 25.6588 16.508 25.238C16.508 24.8172 15.0298 23.9365 13.2064 23.9365Z" fill="#ABD1F3"/>
</svg>
