<svg width="26" height="26" viewBox="0 0 26 26" fill="none" xmlns="http://www.w3.org/2000/svg">
<path d="M16.2493 24.3763L15.7684 24.827H10.1829L9.74963 24.3763L9.94473 24.1812C10.34 23.7859 10.5621 23.2498 10.5621 22.6907V20.3119H15.4369V22.6907C15.4369 23.2497 15.659 23.7859 16.0543 24.1812L16.2493 24.3763Z" fill="#4297EB"/>
<path d="M17.0624 24.3762H12.5548C12.7141 23.8758 12.6324 23.5801 12.6546 22.5215C12.6546 22.3252 12.8138 22.166 13.0101 22.166H15.4369V20.3119H10.5621V22.6906C10.5621 23.7501 9.81997 24.2788 9.74964 24.3762H8.93661C8.48823 24.3762 8.12476 24.7397 8.12476 25.1881C8.12476 25.6365 8.48823 26 8.93661 26H17.0624C17.5108 26 17.8743 25.6365 17.8743 25.1881C17.8743 24.7398 17.5108 24.3762 17.0624 24.3762Z" fill="#4297EB"/>
<path d="M25.6435 21.1199H0.355576C0.159264 21.1199 0.00012207 20.9607 0.00012207 20.7644V17.8744L0.775316 17.1017H25.2238L25.999 17.8744V20.7644C25.999 20.9607 25.8398 21.1199 25.6435 21.1199Z" fill="#E9F5FF"/>
<path d="M25.9988 17.8743H0V0.355454C0 0.159142 0.159142 0 0.355454 0H25.6434C25.8397 0 25.9988 0.159142 25.9988 0.355454V17.8743Z" fill="#ABD1F3"/>
<path d="M24.0184 16.2475H4.18499L3.24451 14.6201V3.25098L4.18499 1.62488H24.0184C24.2147 1.62488 24.3739 1.78402 24.3739 1.98033V15.8921C24.3739 16.0884 24.2147 16.2475 24.0184 16.2475Z" fill="#ABD1F3"/>
<path d="M1.62512 1.98033V15.8921C1.62512 16.0884 1.78426 16.2475 1.98058 16.2475H4.1851V1.62488H1.98058C1.78426 1.62488 1.62512 1.78402 1.62512 1.98033Z" fill="#ABD1F3"/>
<path d="M10.7613 3.65671C10.1986 3.66138 9.67791 3.84215 9.25157 4.14652C8.70336 4.53798 7.966 4.53798 7.41779 4.14652C6.99145 3.8421 6.47081 3.66133 5.90802 3.65671C4.46031 3.64472 3.26233 4.81721 3.24471 6.26487C3.23572 7 3.52745 7.66678 4.00421 8.15081H4.00416C4.52358 8.65723 4.83831 9.33721 4.88817 10.061L5.12775 13.5382C5.16974 14.1474 5.67611 14.6201 6.28678 14.6201C6.89456 14.6201 7.39966 14.1516 7.44526 13.5455L7.70332 10.5071C7.7282 10.1768 8.00347 9.92143 8.33476 9.92143C8.66604 9.92143 8.94131 10.1767 8.96619 10.5071L9.22425 13.5455C9.26985 14.1516 9.77495 14.6201 10.3827 14.6201C10.9933 14.6201 11.4998 14.1474 11.5418 13.5382L11.7813 10.0609C11.8312 9.33716 12.1459 8.65718 12.6653 8.15076C13.142 7.66673 13.4337 6.99995 13.4248 6.26482C13.407 4.81721 12.209 3.64472 10.7613 3.65671Z" fill="white"/>
<path d="M7.22026 13.5383L6.98068 10.0611C6.93082 9.33733 6.61609 8.65735 6.09667 8.15093H6.09672C5.62 7.6669 5.32828 7.00007 5.33721 6.265C5.35026 5.19518 6.00821 4.27623 6.93488 3.87396C6.61969 3.73726 6.27282 3.65988 5.90802 3.65683C4.46031 3.64485 3.26233 4.81733 3.24471 6.265C3.23572 7.00012 3.52745 7.6669 4.00421 8.15093H4.00416C4.52358 8.65735 4.83831 9.33733 4.88817 10.0611L5.12775 13.5383C5.16969 14.1475 5.67611 14.6202 6.28673 14.6202C6.74471 14.6202 7.14414 14.3541 7.33283 13.9637C7.27012 13.8338 7.23072 13.6903 7.22026 13.5383Z" fill="#EDF8FF"/>
<path d="M22.3936 14.6201H18.865L18.2753 13.7884V10.4534L18.865 9.75073H22.3936C22.5899 9.75073 22.7491 9.90987 22.7491 10.1062V14.2646C22.7491 14.461 22.5899 14.6201 22.3936 14.6201Z" fill="#FFE177"/>
<path d="M16.2493 10.1062V14.2646C16.2493 14.461 16.4084 14.6201 16.6047 14.6201H18.8648V9.75073H16.6047C16.4084 9.75073 16.2493 9.90987 16.2493 10.1062Z" fill="#FED15B"/>
<path d="M16.154 5.11398H22.4633C22.6737 5.11398 22.8441 4.94352 22.8441 4.73314C22.8441 4.52276 22.6737 4.35229 22.4633 4.35229H16.154C15.9437 4.35229 15.7732 4.52276 15.7732 4.73314C15.7732 4.94352 15.9437 5.11398 16.154 5.11398Z" fill="white"/>
<path d="M16.154 6.69137H22.4633C22.6737 6.69137 22.8441 6.52091 22.8441 6.31053C22.8441 6.10015 22.6737 5.92969 22.4633 5.92969H16.154C15.9437 5.92969 15.7732 6.10015 15.7732 6.31053C15.7732 6.52091 15.9437 6.69137 16.154 6.69137Z" fill="white"/>
<path d="M16.154 8.26864H22.4633C22.6737 8.26864 22.8441 8.09818 22.8441 7.8878C22.8441 7.67742 22.6737 7.50696 22.4633 7.50696H16.154C15.9437 7.50696 15.7732 7.67742 15.7732 7.8878C15.7732 8.09818 15.9437 8.26864 16.154 8.26864Z" fill="white"/>
</svg>
