<svg width="27" height="26" viewBox="0 0 27 26" fill="none" xmlns="http://www.w3.org/2000/svg">
<path d="M17.2565 23.3521V25.5518C17.2565 25.7994 17.056 26 16.8083 26H0.448222C0.200579 26 0 25.7994 0 25.5518V23.3521C0 21.0443 1.87076 19.1747 4.17911 19.1741C4.99487 19.1736 5.71315 18.7539 6.12663 18.1175C6.54202 17.4791 6.49921 16.924 6.49921 16.4753L6.50762 16.4546C4.49622 15.622 3.08152 13.6403 3.08152 11.328V11.1527C2.28285 11.1527 1.68083 10.5215 1.68083 9.77774V7.44922C1.6629 6.6385 1.69988 3.77941 3.76506 1.78875C6.16641 -0.525759 9.97181 -0.336386 12.7284 0.901827C12.818 0.942167 12.8152 1.07047 12.7245 1.10801L12.0056 1.40384C11.898 1.4481 11.921 1.60666 12.0364 1.61898L12.3855 1.65652C14.2635 1.8571 15.8261 2.97821 16.6055 4.30663C16.6128 4.31952 16.6105 4.33633 16.5999 4.34753C15.9791 4.98064 15.6317 5.83283 15.6317 6.7203V9.6965C15.6317 10.4994 14.9812 11.1527 14.175 11.1527V11.328C14.175 13.6403 12.7603 15.622 10.7489 16.4546L10.7573 16.4753C10.7573 16.9112 10.711 17.4738 11.1299 18.1175C11.5434 18.7539 12.2617 19.1736 13.0774 19.1741C15.3858 19.1747 17.2565 21.0443 17.2565 23.3521Z" fill="#FFD6A6"/>
<path d="M16.6053 4.30654C16.6127 4.31926 16.6105 4.33629 16.5996 4.34739C15.9792 4.98072 15.6317 5.83302 15.6317 6.72027V9.69646C15.6317 10.4993 14.9814 11.1526 14.175 11.1526C14.175 9.45717 14.1759 8.57115 14.1756 8.09491C14.1754 7.79421 13.8849 7.57811 13.5975 7.66652C12.6942 7.94442 11.6406 8.08763 10.5332 7.84699C8.5846 7.42342 8.03273 6.65976 6.44323 6.27821C4.66715 5.8524 3.05635 7.21276 3.06756 8.95298C3.07092 9.52502 3.08044 10.2399 3.08156 11.1526C2.28289 11.1526 1.68087 10.5215 1.68087 9.7777V7.44919C1.66294 6.63847 1.69992 3.77938 3.7651 1.78871C6.16623 -0.525847 9.97202 -0.336362 12.7281 0.901963C12.8178 0.942246 12.8154 1.07061 12.7245 1.10803L12.0056 1.40397C11.8981 1.44823 11.9208 1.60662 12.0363 1.61901L12.3855 1.65649C14.2637 1.85729 15.8262 2.97801 16.6053 4.30654Z" fill="#4297EB"/>
<path d="M13.5975 7.66653C13.8848 7.57812 14.1753 7.794 14.1756 8.09464C14.1759 8.58741 14.1749 9.51831 14.1749 11.328C14.1749 13.6403 12.7602 15.622 10.7488 16.4545C7.11169 17.9643 3.08145 15.2822 3.08145 11.328C3.08145 10.3054 3.07114 9.57893 3.06744 8.95299C3.05624 7.21277 4.66703 5.85241 6.44311 6.27822C8.03262 6.65977 8.58449 7.42343 10.5331 7.847C11.6405 8.08758 12.6942 7.94443 13.5975 7.66653Z" fill="#FFDFBA"/>
<path d="M17.2565 23.3521V25.5517C17.2565 25.7993 17.0558 26 16.8083 26H0.448222C0.200691 26 0 25.7993 0 25.5517V23.3521C0 21.0443 1.87105 19.175 4.17883 19.1741C4.99481 19.1738 5.71326 18.7537 6.12663 18.1174C7.56957 19.3502 9.68613 19.3509 11.1299 18.1174C11.5432 18.7537 12.2617 19.1738 13.0777 19.1741C15.3855 19.175 17.2565 21.0443 17.2565 23.3521Z" fill="url(#paint0_linear_922_444)"/>
<path d="M13.1665 25.0476H11.8219C11.5743 25.0476 11.3737 24.8469 11.3737 24.5993C11.3737 24.3518 11.5743 24.1511 11.8219 24.1511H13.1665C13.4141 24.1511 13.6148 24.3518 13.6148 24.5993C13.6148 24.8469 13.4141 25.0476 13.1665 25.0476Z" fill="white"/>
<path d="M6.43658 20.5276C6.22938 20.5927 6.00718 20.6286 5.76895 20.6307C3.45523 20.6511 1.56878 22.4806 1.56878 24.7944V25.2156C1.56878 25.6488 1.21759 26 0.784388 26H0.448222C0.200691 26 0 25.7993 0 25.5517V23.3521C0 21.0443 1.87105 19.175 4.17883 19.1741C4.99481 19.1738 5.71326 18.7537 6.12663 18.1174C6.29326 18.2597 6.47165 18.3877 6.65957 18.4997C7.48614 18.9922 7.35442 20.239 6.43658 20.5276Z" fill="url(#paint1_linear_922_444)"/>
<path d="M10.82 20.5276C11.0272 20.5927 11.2494 20.6286 11.4876 20.6307C13.8013 20.6511 15.6878 22.4806 15.6878 24.7944V25.2156C15.6878 25.6488 16.039 26 16.4722 26H16.8083C17.0559 26 17.2566 25.7993 17.2566 25.5517V23.3521C17.2566 21.0443 15.3855 19.175 13.0777 19.1741C12.2617 19.1738 11.5433 18.7537 11.1299 18.1174C10.9633 18.2597 10.7849 18.3877 10.597 18.4997C9.77047 18.9922 9.90213 20.239 10.82 20.5276Z" fill="#2C2C33"/>
<path d="M10.8206 17.3953C9.44029 17.9731 7.92334 18.0179 6.43591 17.3953C6.51189 17.0801 6.49922 16.8759 6.49922 16.4753L6.50763 16.4546C7.85689 17.0146 9.39703 17.0158 10.7489 16.4546L10.7573 16.4753C10.7573 16.8761 10.7447 17.0802 10.8206 17.3953Z" fill="#F7C388"/>
<path d="M12.7245 1.10801C12.1963 1.32523 12.0793 1.40176 11.8367 1.36181C7.3911 0.62998 3.89049 2.95446 3.41157 7.49679C3.40316 7.57652 3.38271 7.65479 3.34736 7.72673C3.00643 8.4208 3.06705 8.93446 3.07428 9.78844C3.08184 10.6868 1.72799 10.7444 1.68261 9.8471C1.67975 9.79107 1.68087 9.93876 1.68087 7.44922C1.66294 6.6385 1.69992 3.77941 3.7651 1.78875C6.16645 -0.525759 9.97185 -0.336386 12.7284 0.901827C12.8181 0.942167 12.8153 1.07047 12.7245 1.10801Z" fill="#3C7CBB"/>
<path d="M7.37306 14.9104C8.28469 15.4805 7.56524 16.8794 6.56739 16.479C4.51806 15.6566 3.08157 13.6586 3.08157 11.3281C3.08157 10.3043 3.07126 9.58147 3.06756 8.95307C3.06403 8.39049 3.22982 7.8677 3.51589 7.43214C3.87548 6.88469 4.74363 7.12326 4.74839 7.83251C4.75209 8.46305 4.7624 9.18267 4.7624 10.2075C4.76234 12.2524 5.8374 13.95 7.37306 14.9104Z" fill="#FFEBD2"/>
<path d="M26.1402 19.9191C26.1272 19.9321 24.8278 21.2336 24.8121 21.2432C25.1747 21.8624 25.3826 22.583 25.3826 23.3518V25.5517C25.3826 25.7994 25.182 26 24.9343 26H8.57223C8.32456 26 8.12395 25.7994 8.12395 25.5517V23.3518C8.12395 22.583 8.33184 21.8624 8.69438 21.2432C8.67931 21.234 8.78561 21.3384 7.36637 19.9191C6.83964 19.3924 6.79089 18.5553 7.25206 17.9708C7.81453 17.2512 7.65113 16.4207 7.14503 15.9435C6.58973 15.4196 6.52809 14.5578 7.00326 13.9604L7.64878 13.149C7.94632 12.7747 8.04326 12.2783 7.90766 11.8194L7.49076 10.4056C7.27727 9.68332 7.64542 8.91621 8.34249 8.63099L8.89331 8.40517C9.44468 8.17935 9.80499 7.64254 9.80499 7.04633V5.60345C9.80499 2.50866 12.3136 0 15.4084 0H18.0981C21.1927 0 23.7015 2.50799 23.7015 5.60345V7.04633C23.7015 7.64254 24.0618 8.17935 24.6132 8.40517L25.164 8.63099C25.8611 8.91621 26.2292 9.68332 26.0158 10.4056L25.5989 11.8194C25.4633 12.2783 25.5602 12.7747 25.8577 13.149L26.5033 13.9604C26.9788 14.5592 26.9166 15.419 26.3615 15.9435C25.8073 16.4657 25.7446 17.3247 26.2164 17.9221C26.7524 18.6079 26.6385 19.4208 26.1402 19.9191Z" fill="#FFDFBA"/>
<path d="M7.36633 19.9191C7.37933 19.9321 8.67871 21.2336 8.69435 21.2432C8.3318 21.8624 8.12392 22.583 8.12392 23.3518V25.5517C8.12392 25.7994 8.32452 26 8.57219 26H24.9343C25.1819 26 25.3825 25.7994 25.3825 25.5517V23.3518C25.3825 22.583 25.1746 21.8624 24.8121 21.2432C24.8272 21.234 24.7209 21.3384 26.1401 19.9191C26.6668 19.3924 26.7156 18.5553 26.2544 17.9708C25.692 17.2512 25.8554 16.4207 26.3615 15.9435C26.9168 15.4196 26.9784 14.5578 26.5032 13.9604L25.8577 13.149C25.5602 12.7747 25.4632 12.2783 25.5988 11.8194L26.0157 10.4056C26.2292 9.68332 25.8611 8.91621 25.164 8.63099L24.6132 8.40517C24.0618 8.17935 23.7015 7.64254 23.7015 7.04633V5.60345C23.7015 2.50866 21.1928 0 18.098 0H15.4084C12.3138 0 9.80495 2.50799 9.80495 5.60345V7.04633C9.80495 7.64254 9.44465 8.17935 8.89327 8.40517L8.34245 8.63099C7.64538 8.91621 7.27723 9.68332 7.49073 10.4056L7.90762 11.8194C8.04323 12.2783 7.94629 12.7747 7.64874 13.149L7.00323 13.9604C6.52766 14.5592 6.58992 15.419 7.14499 15.9435C7.69917 16.4657 7.76193 17.3247 7.29012 17.9221C6.7541 18.6079 6.86801 19.4208 7.36633 19.9191Z" fill="#FFDFBA"/>
<path d="M11.6033 10.021C11.3767 10.0469 11.2058 10.2382 11.2058 10.4662V11.3263C11.2058 13.6383 12.6207 15.6208 14.6324 16.4535L14.624 16.4741V16.8568C14.624 18.1312 13.5967 19.1584 12.3293 19.1733C10.7563 19.1733 9.42031 20.0035 8.69438 21.2432C8.67875 21.2336 7.37937 19.9321 7.36637 19.9191C6.83964 19.3924 6.79089 18.5553 7.25206 17.9708C7.81453 17.2512 7.65113 16.4207 7.14503 15.9435C6.58973 15.4196 6.52809 14.5578 7.00326 13.9604L7.64878 13.149C7.94632 12.7747 8.04326 12.2783 7.90766 11.8194L7.49076 10.4056C7.27727 9.68332 7.64542 8.9162 8.34249 8.63099L8.89331 8.40517C9.44469 8.17935 9.80499 7.64254 9.80499 7.04633V5.60345C9.80499 2.50878 12.3138 0 15.4084 0H18.0981C21.1927 0 23.7015 2.50805 23.7015 5.60345V7.04633C23.7015 7.64254 24.0618 8.17935 24.6132 8.40517L25.164 8.63099C25.8611 8.9162 26.2293 9.68332 26.0158 10.4056L25.5989 11.8194C25.4633 12.2783 25.5602 12.7747 25.8577 13.149L26.5033 13.9604C26.9788 14.5592 26.9167 15.4189 26.3615 15.9435C25.844 16.4312 25.7013 17.2631 26.2545 17.9708C26.7156 18.5553 26.6669 19.3924 26.1402 19.9191C26.1272 19.9321 24.8278 21.2336 24.8121 21.2432C24.0922 20.0137 22.7617 19.1733 21.1772 19.1733C19.9103 19.1584 18.8826 18.1318 18.8826 16.8568V16.4741L18.8742 16.4528C20.8858 15.6202 22.3007 13.6388 22.3007 11.3262V8.56302C22.3007 8.37463 22.1833 8.20614 22.0062 8.14203C21.0312 7.78946 20.208 7.1101 19.6787 6.20246C19.5241 5.93736 19.1529 5.90637 18.9524 6.13874C17.0764 8.31316 14.4725 9.69335 11.6033 10.021Z" fill="#FED15B"/>
<path d="M22.0061 8.14211C22.1833 8.20616 22.3006 8.37466 22.3006 8.5631V11.3263C22.3006 13.6389 20.8858 15.6202 18.8741 16.4529C15.2354 17.9633 11.2058 15.2801 11.2058 11.3263V10.4662C11.2058 10.2381 11.3767 10.0468 11.6033 10.0209C14.4676 9.69388 17.0732 8.31688 18.9524 6.13882C19.1528 5.90645 19.5241 5.93738 19.6787 6.20254C20.2074 7.1094 21.0301 7.78915 22.0061 8.14211Z" fill="#FFEBD2"/>
<path d="M25.3825 23.3518V25.5517C25.3825 25.7994 25.1819 26 24.9342 26H8.57218C8.3245 26 8.1239 25.7994 8.1239 25.5517V23.3518C8.1239 21.046 9.9931 19.1733 12.3024 19.1733C12.6262 19.1733 12.9537 19.1071 13.2651 18.9655L13.2791 18.9957L16.4786 21.473C16.6406 21.598 16.8658 21.598 17.0278 21.473L20.2273 18.9957L20.2414 18.9655C20.5271 19.0955 20.8437 19.1694 21.1771 19.1733C23.5764 19.1733 25.3825 21.0978 25.3825 23.3518Z" fill="#4297EB"/>
<path d="M20.0666 0.355931C20.7827 0.624448 20.5774 1.68563 19.8126 1.68115C19.7848 1.68098 17.1173 1.68103 17.0895 1.68103C13.9948 1.68103 11.486 4.18981 11.486 7.28448V8.72737C11.486 9.32358 11.1257 9.86039 10.5743 10.0862L10.0235 10.312C9.32645 10.5972 8.95831 11.3644 9.1718 12.0866L9.58869 13.5004C9.7243 13.9593 9.62736 14.4558 9.32981 14.8301L8.6843 15.6415C8.20912 16.2388 8.27076 17.1006 8.82606 17.6245C9.37929 18.1463 9.44351 19.0045 8.97119 19.6031C8.57559 20.1093 8.5325 20.6613 8.73355 21.1345C8.75636 21.1882 8.68777 21.2377 8.64474 21.1954C8.40468 20.9592 7.37791 19.9307 7.36637 19.9192C6.87791 19.4307 6.74522 18.6193 7.29016 17.9221C7.76298 17.323 7.69775 16.4647 7.14503 15.9435C6.58973 15.4196 6.52809 14.5578 7.00326 13.9605L7.64878 13.1491C7.94632 12.7748 8.04326 12.2783 7.90766 11.8194L7.49076 10.4056C7.27727 9.68332 7.64542 8.91621 8.34249 8.63099L8.89331 8.40517C9.44468 8.17935 9.80499 7.64254 9.80499 7.04634V5.60345C9.80499 2.50878 12.3138 0 15.4084 0H18.0981C18.785 0 19.4495 0.124565 20.0666 0.355931Z" fill="#F0C144"/>
<path d="M15.4908 14.9119C16.3982 15.4864 15.6891 16.877 14.6921 16.4777C12.6443 15.6575 11.2058 13.6569 11.2058 11.3262V10.4661C11.2058 10.238 11.3767 10.0469 11.6031 10.0211C11.8113 9.99715 12.0357 9.96572 12.2737 9.9242C12.5891 9.86917 12.8855 10.096 12.9115 10.4152C13.0804 12.4907 14.1016 14.0323 15.4908 14.9119Z" fill="#FFF3E4"/>
<path d="M13.996 19.551C14.2821 19.7725 14.1307 20.2365 13.7689 20.238C11.3854 20.2475 9.5808 22.161 9.5808 24.4165V26H8.57218C8.32462 26 8.1239 25.7993 8.1239 25.5517V23.3518C8.1239 21.0847 9.94284 19.1733 12.3293 19.1733C12.6627 19.1694 12.9793 19.0955 13.2651 18.9655L13.2791 18.9957L13.996 19.551Z" fill="url(#paint2_linear_922_444)"/>
<path d="M19.5104 19.551C19.2244 19.7725 19.3758 20.2365 19.7376 20.238C22.1211 20.2475 23.9256 22.161 23.9256 24.4165V26H24.9343C25.1818 26 25.3825 25.7993 25.3825 25.5517V23.3518C25.3825 21.0847 23.5636 19.1733 21.1772 19.1733C20.8438 19.1694 20.5272 19.0955 20.2414 18.9655L20.2274 18.9957L19.5104 19.551Z" fill="url(#paint3_linear_922_444)"/>
<path d="M16.4789 21.4729C16.6404 21.598 16.8661 21.598 17.0277 21.4729L20.2274 18.9957L20.2414 18.9655C20.5272 19.0955 20.8438 19.1694 21.1772 19.1733L19.2188 26H14.2878L12.3293 19.1733C12.6628 19.1694 12.9793 19.0955 13.2651 18.9655L13.2791 18.9957L16.4789 21.4729Z" fill="#D6F4FC"/>
<path d="M17.2016 21.3384V25.1034C17.2016 25.3511 17.001 25.5517 16.7533 25.5517C16.5057 25.5517 16.3051 25.3511 16.3051 25.1034V21.3384L16.4788 21.4729C16.6407 21.5979 16.866 21.5979 17.0279 21.4729L17.2016 21.3384Z" fill="#BDEFFC"/>
<path d="M13.2576 20.2683C13.0903 20.2869 12.9011 20.3194 12.6756 20.3798L12.3293 19.1733C12.6628 19.1694 12.9793 19.0955 13.2651 18.9655L13.2791 18.9957L13.5542 19.2088C13.9756 19.5352 13.7873 20.2091 13.2576 20.2683Z" fill="#E8F8FC"/>
<path d="M20.2491 20.2683C20.4164 20.2869 20.6055 20.3194 20.831 20.3798L21.1773 19.1733C20.8439 19.1694 20.5273 19.0955 20.2415 18.9655L20.2275 18.9957L19.9525 19.2088C19.531 19.5352 19.7194 20.2091 20.2491 20.2683Z" fill="#BDEFFC"/>
<path d="M18.946 17.3942C17.5655 17.9721 16.0484 18.0169 14.5608 17.3942C14.6368 17.0789 14.6241 16.8747 14.6241 16.4741L14.6325 16.4534C15.9819 17.0135 17.5223 17.0146 18.8743 16.4534L18.8827 16.4741C18.8827 16.8749 18.8701 17.0791 18.946 17.3942Z" fill="#FFD6A6"/>
<defs>
<linearGradient id="paint0_linear_922_444" x1="2.98999" y1="20.2523" x2="16.9644" y2="25.2736" gradientUnits="userSpaceOnUse">
<stop stop-color="#48A0F4"/>
<stop offset="1" stop-color="#215FD9"/>
</linearGradient>
<linearGradient id="paint1_linear_922_444" x1="1.24908" y1="20.2523" x2="7.69544" y2="21.2199" gradientUnits="userSpaceOnUse">
<stop stop-color="#48A0F4"/>
<stop offset="1" stop-color="#215FD9"/>
</linearGradient>
<linearGradient id="paint2_linear_922_444" x1="9.16724" y1="20.8706" x2="14.5666" y2="21.6292" gradientUnits="userSpaceOnUse">
<stop stop-color="#48A0F4"/>
<stop offset="1" stop-color="#215FD9"/>
</linearGradient>
<linearGradient id="paint3_linear_922_444" x1="20.4043" y1="20.8706" x2="25.8036" y2="21.6292" gradientUnits="userSpaceOnUse">
<stop stop-color="#48A0F4"/>
<stop offset="1" stop-color="#215FD9"/>
</linearGradient>
</defs>
</svg>
