<svg width="26" height="26" viewBox="0 0 26 26" fill="none" xmlns="http://www.w3.org/2000/svg">
<path d="M24.4138 7.38802L19.7244 2.6897V21.5173H26.0002V11.2028C26.0002 9.77064 25.4291 8.39765 24.4138 7.38802Z" fill="#FFDFBA"/>
<path d="M3.66538 18.0865L0.12028 8.88332C-0.235535 7.95947 0.224759 6.92171 1.14912 6.56572L17.882 0.120402C18.8058 -0.235413 19.8436 0.224882 20.1994 1.14924L23.7445 10.3524C24.1003 11.2762 23.64 12.314 22.7157 12.67L5.98332 19.1153C5.05896 19.4711 4.02171 19.0103 3.66538 18.0865Z" fill="#91BFEC"/>
<path d="M21.4771 4.46484L1.41406 12.2416L2.75 15.7095L22.8139 7.93635L21.4771 4.46484Z" fill="#FED15B"/>
<path d="M0 11.6552V1.79314C0 0.802898 0.802898 0 1.79314 0H19.7242C20.7144 0 21.5173 0.802898 21.5173 1.79314V11.6552C21.5173 12.6455 20.7144 13.4484 19.7242 13.4484H1.79314C0.802898 13.4484 0 12.6455 0 11.6552Z" fill="#4398D1"/>
<path d="M19.7244 0H17.8192L4.37085 13.4484H19.7244C20.7146 13.4484 21.5175 12.6455 21.5175 11.6552V1.79314C21.5175 0.802898 20.7146 0 19.7244 0Z" fill="#629FDB"/>
<path d="M1.79333 7.17236H3.58647V8.06894H1.79333V7.17236Z" fill="#5EB3D1"/>
<path d="M1.79333 9.86206H3.58647V10.7586H1.79333V9.86206Z" fill="#5EB3D1"/>
<path d="M9.8623 9.86206H11.6554V10.7586H9.8623V9.86206Z" fill="#5EB3D1"/>
<path d="M4.48291 7.17236H6.27588V8.06894H4.48291V7.17236Z" fill="#5EB3D1"/>
<path d="M7.17261 7.17236H8.96574V8.06894H7.17261V7.17236Z" fill="#5EB3D1"/>
<path d="M9.8623 7.17236H11.6554V8.06894H9.8623V7.17236Z" fill="#5EB3D1"/>
<path d="M18.3795 1.79309H19.2761V3.13795H18.3795V1.79309Z" fill="#5EB3D1"/>
<path d="M16.5864 1.79309H17.483V3.13795H16.5864V1.79309Z" fill="#5EB3D1"/>
<path d="M14.7932 1.79309H15.6898V3.13795H14.7932V1.79309Z" fill="#5EB3D1"/>
<path d="M13.0002 1.79309H13.8966V3.13795H13.0002V1.79309Z" fill="#5EB3D1"/>
<path d="M17.9313 21.5173H26.0002V26H17.9313V21.5173Z" fill="#9BE69D"/>
<path d="M16.6155 8.09812C15.8552 7.34052 14.6248 7.34275 13.8672 8.1031C13.1346 8.83823 13.1092 10.0194 13.8093 10.7856L17.4829 14.7932C16.3788 16.7257 16.426 19.1086 17.6053 20.996L17.9312 21.5173H23.7588V15.2415L16.6155 8.09812Z" fill="#FFDFBA"/>
<path d="M19.2761 22.8622H20.1727V23.7588H19.2761V22.8622Z" fill="white"/>
<path d="M1.79333 4.66208V2.51038C1.79333 2.11408 2.11432 1.79309 2.51063 1.79309H4.66232C5.05863 1.79309 5.37944 2.11408 5.37944 2.51038V4.66208C5.37944 5.05838 5.05863 5.37937 4.66232 5.37937H2.51063C2.11432 5.37937 1.79333 5.05838 1.79333 4.66208Z" fill="#FFE177"/>
<path d="M1.79333 3.13794H3.13819V4.03451H1.79333V3.13794Z" fill="white"/>
<path d="M4.03479 3.13794H5.37947V4.03451H4.03479V3.13794Z" fill="white"/>
<path d="M23.3106 15.2415C23.1918 15.2415 23.0776 15.1944 22.9937 15.1101L21.2006 13.317C21.0285 13.1391 21.0335 12.8553 21.2119 12.6831C21.3858 12.5155 21.661 12.5155 21.8345 12.6831L23.6276 14.4762C23.8024 14.6516 23.8024 14.9353 23.6276 15.1101C23.5432 15.1944 23.4295 15.2415 23.3106 15.2415Z" fill="#FFDFBA"/>
</svg>
