<svg width="23" height="26" viewBox="0 0 23 26" fill="none" xmlns="http://www.w3.org/2000/svg">
<path d="M9.62614 1.75397H20.8929C21.8501 1.75397 22.6262 2.5393 22.6262 3.50793V21.0477C22.6262 22.0163 21.8501 22.8016 20.8929 22.8016H9.62614C8.66891 22.8016 7.89282 22.0163 7.89282 21.0477V3.50798C7.89282 2.53935 8.66891 1.75397 9.62614 1.75397Z" fill="#5496D7"/>
<path d="M17.4182 21.0477H9.64673V3.508H20.8722V17.5398L17.4182 21.0477Z" fill="#F2F2F2"/>
<path d="M17.832 1.75394H16.5458V1.31543C16.5458 0.588869 15.9699 0 15.2595 0C14.5491 0 13.9733 0.588869 13.9733 1.31548V1.75399H12.687L11.4008 5.26192H19.1182L17.832 1.75394Z" fill="#F0C044"/>
<path d="M9.64673 18.2476V21.0477H17.4182L20.8722 17.4976V5.61273C17.6112 12.732 13.1564 16.3842 9.64673 18.2476Z" fill="#F0F0F0"/>
<path d="M17.3643 21.0478V17.5399H20.8722L17.3643 21.0478Z" fill="#91BFEC"/>
<path d="M19.2936 9.64685H13.1547V10.5238H19.2936V9.64685Z" fill="#CFCFCF"/>
<path d="M19.2935 12.2779H14.0316V13.1549H19.2935V12.2779Z" fill="#CFCFCF"/>
<path d="M19.2935 14.9089H14.0316V15.7859H19.2935V14.9089Z" fill="#CFCFCF"/>
<path d="M19.2414 7.01587H12.2777V7.88633H19.2414V7.01587Z" fill="#CFCFCF"/>
<path d="M16.6626 17.5399H14.0316V18.4168H16.6626V17.5399Z" fill="#CFCFCF"/>
<path d="M11.7545 4.29063L11.4008 5.2618H19.1182L18.0957 2.45544L11.7545 4.29063Z" fill="#FED15B"/>
<path d="M4.47455 10.7835C4.07527 10.612 3.64579 10.5239 3.21131 10.5239C1.43772 10.5239 0 11.9616 0 13.7352C0.000394461 15.1857 0.338141 16.6165 0.986592 17.9137L1.5476 19.0358L2.21271 25.02C2.2746 25.5779 2.74585 26 3.30725 26C3.8524 26 4.31593 25.6011 4.39675 25.0618L5.24445 19.4099C5.3435 18.7502 5.9103 18.262 6.57734 18.262C7.24437 18.262 7.81117 18.7502 7.91022 19.4099L8.75792 25.0618C8.83883 25.6011 9.30236 26 9.84751 26C10.4089 26 10.8802 25.5779 10.942 25.02L11.6072 19.0358L12.1682 17.9137C12.8166 16.6165 13.1544 15.1857 13.1548 13.7352C13.1548 11.9616 11.717 10.5239 9.94345 10.5239C9.50858 10.5239 9.0787 10.6121 8.67903 10.7835C7.3365 11.3584 5.81712 11.3584 4.47455 10.7835Z" fill="#E3EEF8"/>
<path d="M1.93457 14.7798H1.16077V14.2401C1.15963 13.2392 1.66024 12.3041 2.49365 11.7496L2.92313 12.3934C2.30488 12.8043 1.93382 13.4977 1.93461 14.2401V14.7798H1.93457Z" fill="white"/>
<path d="M2.21268 25.0202C2.28 25.6249 2.82475 26.0606 3.42911 25.9932C3.92552 25.9379 4.32248 25.556 4.39677 25.062L5.19494 19.7393C4.0911 20.2349 2.93656 20.6079 1.75146 20.852L2.21268 25.0202Z" fill="#D1E4F4"/>
<path d="M7.38635 18.5378C7.66879 18.7483 7.85681 19.0617 7.91024 19.4099L8.75794 25.0618C8.84809 25.6634 9.40911 26.0778 10.0107 25.9876C10.5044 25.9133 10.8867 25.5163 10.942 25.0199L11.6071 19.0357L12.1681 17.9137C12.8166 16.6164 13.1544 15.1856 13.1547 13.7351C13.1543 13.267 13.0506 12.8046 12.8514 12.3809C11.5932 14.8715 9.71012 16.9929 7.38635 18.5378Z" fill="#D1E4F4"/>
</svg>
