<svg width="1482" height="1315" viewBox="0 0 1482 1315" fill="none" xmlns="http://www.w3.org/2000/svg">
<path opacity="0.05" fill-rule="evenodd" clip-rule="evenodd" d="M1399.93 675.5C1399.93 690.713 1399.12 705.865 1397.52 720.926C1373.35 703.855 1347.85 687.633 1321.12 672.443C1130.53 564.14 926.675 536.372 784.984 585.784C882.129 493.734 950.034 332.311 961.392 144.746C1228.08 245.397 1399.93 454.026 1399.93 675.5ZM885.6 35.4921C890.696 36.8188 895.771 38.1805 900.824 39.5769C1239.66 133.206 1482 382.58 1482 675.5C1482 924.63 1306.7 1142.26 1045.83 1259.36C1013.71 1273.78 980.3 1286.67 945.757 1297.92L945.23 1298.09C840.328 1332.16 725.024 1351 604 1351C489.384 1351 379.897 1334.1 279.519 1303.37C277.047 1302.61 274.581 1301.85 272.121 1301.08C239.897 1290.95 208.63 1279.39 178.454 1266.5C-91.3823 1151.24 -274 929.78 -274 675.5C-274 404.644 -66.7963 171.021 232.312 63.3375C232.312 63.3373 232.312 63.3372 232.312 63.337C259.353 53.6019 287.146 44.8961 315.604 37.2851C315.604 37.2853 315.604 37.2853 315.604 37.2855C405.935 13.1272 502.975 0 604 0C702.497 0 797.205 12.4783 885.6 35.4921ZM314.685 122.042C403.193 96.2484 500.427 81.8788 604 81.8788C702.594 81.8788 795.443 94.9 880.49 118.401C875.804 252.926 839.418 370.744 786.57 454.413C729.208 545.229 660.283 585.697 597.52 585.697C534.758 585.697 465.832 545.229 408.47 454.413C356.099 371.499 319.895 255.051 314.685 122.042ZM233.957 149.63C-25.5044 252.036 -191.927 457.548 -191.927 675.5C-191.927 695.528 -190.522 715.45 -187.768 735.197C-163.842 718.337 -138.615 702.308 -112.183 687.289C80.5745 577.756 286.894 550.597 428.757 602.343C322.566 514.69 246.966 346.898 233.957 149.63ZM520.453 654.691C541.418 672.634 559.08 693.659 572.828 717.739C657.66 866.322 566.19 1083.45 366.272 1242.45C440.52 1259.71 520.184 1269.12 604 1269.12C693.595 1269.12 778.445 1258.37 857.008 1238.77C647.166 1078.9 549.274 854.984 636.109 702.893C645.999 685.569 657.916 669.827 671.631 655.675C647.698 663.477 622.911 667.576 597.52 667.576C571.082 667.576 545.299 663.132 520.453 654.691ZM1280.5 743.59C1316.03 763.778 1348.92 785.815 1378.97 809.12C1325.11 979.338 1170.85 1128.76 955.912 1208.3C850.441 1139.59 772.382 1054.76 728.205 972.277C677.495 877.603 676.361 797.825 707.424 743.417C738.487 689.01 807.848 649.289 915.339 644.511C1021.56 639.789 1152.64 670.933 1280.5 743.59ZM-166.859 821.517C-108.202 990.502 49.6703 1137.55 267.162 1213.73C365.485 1146.77 438.552 1065.87 480.732 987.123C531.442 892.45 532.576 812.671 501.513 758.263C470.45 703.856 401.089 664.135 293.598 659.357C187.373 654.635 56.3006 685.779 -71.5626 758.436C-105.844 777.916 -137.67 799.116 -166.859 821.517Z" fill="url(#paint0_linear_832_5448)"/>
<defs>
<linearGradient id="paint0_linear_832_5448" x1="30.2574" y1="365.896" x2="1565.98" y2="693.524" gradientUnits="userSpaceOnUse">
<stop stop-color="#48A0F4"/>
<stop offset="1" stop-color="#215FD9"/>
</linearGradient>
</defs>
</svg>
