<svg width="19" height="19" viewBox="0 0 19 19" fill="none" xmlns="http://www.w3.org/2000/svg">
<path d="M15.8334 1.58331H7.91671C7.0435 1.58331 6.33337 2.29344 6.33337 3.16665V6.33331H3.16671C2.2935 6.33331 1.58337 7.04344 1.58337 7.91665V15.8333C1.58337 16.7065 2.2935 17.4166 3.16671 17.4166H11.0834C11.9566 17.4166 12.6667 16.7065 12.6667 15.8333V12.6666H15.8334C16.7066 12.6666 17.4167 11.9565 17.4167 11.0833V3.16665C17.4167 2.29344 16.7066 1.58331 15.8334 1.58331ZM3.16671 15.8333V7.91665H11.0834L11.085 15.8333H3.16671ZM15.8334 11.0833H12.6667V7.91665C12.6667 7.04344 11.9566 6.33331 11.0834 6.33331H7.91671V3.16665H15.8334V11.0833Z" fill="#4297EB"/>
</svg>
