<svg width="15" height="16" viewBox="0 0 15 16" fill="none" xmlns="http://www.w3.org/2000/svg">
<path d="M14.1239 14.0765L13.0987 11H11.9737L12.5984 14H1.59891L2.22366 11H1.09866L0.072659 14.0765C-0.187591 14.8595 0.273659 15.5 1.09866 15.5H13.0987C13.9237 15.5 14.3849 14.8595 14.1239 14.0765ZM10.8487 4.25C10.8487 3.25544 10.4536 2.30161 9.75031 1.59835C9.04705 0.895088 8.09322 0.5 7.09866 0.5C6.1041 0.5 5.15027 0.895088 4.44701 1.59835C3.74375 2.30161 3.34866 3.25544 3.34866 4.25C3.34866 7.83125 7.09866 11.75 7.09866 11.75C7.09866 11.75 10.8487 7.83125 10.8487 4.25ZM5.07366 4.295C5.07366 3.17675 5.97966 2.27075 7.09866 2.27075C7.63562 2.27075 8.15059 2.48406 8.53028 2.86375C8.90998 3.24344 9.12328 3.75841 9.12328 4.29538C9.12328 4.83234 8.90998 5.34731 8.53028 5.727C8.15059 6.10669 7.63562 6.32 7.09866 6.32C6.5616 6.32 6.04653 6.10665 5.66677 5.72689C5.28701 5.34713 5.07366 4.83206 5.07366 4.295Z" fill="#5496D7"/>
</svg>
