<svg width="19" height="26" viewBox="0 0 19 26" fill="none" xmlns="http://www.w3.org/2000/svg">
<path d="M12.451 5.43775C13.8775 5.43775 15.034 4.22047 15.034 2.71888C15.034 1.21728 13.8775 0 12.451 0C11.0245 0 9.8681 1.21728 9.8681 2.71888C9.8681 4.22047 11.0245 5.43775 12.451 5.43775Z" fill="#FFDFBA"/>
<path d="M10.1352 7.03613L4.70721 8.83185C3.99145 9.06861 3.44042 9.67422 3.24647 10.4371L2.70545 12.5652C2.50391 13.358 3.07149 14.1363 3.85109 14.1363H3.96671C4.50294 14.1363 4.97252 13.7576 5.11189 13.2125L5.69314 10.9399C5.75819 10.6854 5.94531 10.4855 6.18603 10.4131L7.63235 9.9781C7.83594 9.9169 8.02329 10.1171 7.96188 10.3305L5.42442 19.1515C5.33332 19.4682 5.05602 19.6847 4.7416 19.6847H1.48246C0.663686 19.6847 0 20.3834 0 21.2452C0 22.1071 0.663762 22.8057 1.48246 22.8057H5.59749C6.57469 22.8057 7.43392 22.125 7.70447 21.1366L8.56089 18.0074C8.74376 17.3393 9.61665 17.269 9.89395 17.9001L13.1495 25.1228C13.4919 25.9021 14.3816 26.225 15.1075 25.8332C15.7979 25.4605 16.082 24.5779 15.749 23.8402L11.3326 14.2797C11.2887 14.1825 11.2766 14.0727 11.2981 13.9676L11.4646 13.1543C11.6028 12.4792 12.4603 12.3418 12.7831 12.9429L12.9434 13.2414C13.3323 13.9658 14.0617 14.4138 14.8522 14.4138H17.5262C18.1812 14.4138 18.7121 13.8548 18.7121 13.1654C18.7121 12.4759 18.1811 11.917 17.5262 11.917H15.1284C14.8611 11.917 14.6161 11.7596 14.4939 11.5093L12.9049 8.25445C12.5059 7.43726 11.7063 6.92346 10.8335 6.92346C10.5967 6.9233 10.3612 6.96134 10.1352 7.03613Z" fill="#4297EB"/>
</svg>
