<svg width="26" height="26" viewBox="0 0 26 26" fill="none" xmlns="http://www.w3.org/2000/svg">
<path d="M22.2066 7.66289L15.1531 0.54082C15.0389 0.426562 14.9145 0.330078 14.7799 0.248828C14.7443 0.228516 14.7088 0.208203 14.6707 0.19043C14.6479 0.177734 14.6225 0.167578 14.5996 0.157422C14.3711 0.0558594 14.1197 0 13.8633 0H5.10352C4.09297 0 3.25 0.817578 3.25 1.82812V24.1719C3.25 25.1824 4.09297 26 5.10352 26H20.9219C21.9324 26 22.7246 25.1824 22.7246 24.1719V8.9502C22.7246 8.46777 22.5469 8.00566 22.2066 7.66289ZM14.8027 2.80313L19.9012 7.92188H14.8027V2.80313ZM20.8965 24.1719H5.07812V1.82812H12.9746V7.92188C12.9746 8.93242 13.8176 9.75 14.8281 9.75H20.8965V24.1719ZM8.88672 17.6846C8.88672 18.299 8.69629 18.4818 8.33066 18.4818C8.10215 18.4818 7.86348 18.3346 7.70098 18.0121L6.9291 18.5859C7.26934 19.1674 7.74922 19.4543 8.48555 19.4543C9.5418 19.4543 10.0293 18.6951 10.0293 17.7734V14.6504H8.88672V17.6846ZM12.7283 14.6504H11.0957V19.373H12.2129V17.7988H12.7613C13.7541 17.7988 14.6174 17.3012 14.6174 16.184C14.6174 15.0211 13.7668 14.6504 12.7283 14.6504ZM12.708 16.9102H12.2129V15.5645H12.675C13.2209 15.5645 13.523 15.7219 13.523 16.1967C13.523 16.6562 13.2564 16.9102 12.708 16.9102ZM17.3418 16.6816V17.5957H18.1035V18.36C18.002 18.4336 17.8242 18.4793 17.6541 18.4793C16.7832 18.4793 16.3668 17.9359 16.3668 17.0016C16.3668 16.085 16.867 15.5441 17.5627 15.5441C17.9512 15.5441 18.1975 15.7016 18.426 15.9098L19.0277 15.1912C18.7053 14.8662 18.2127 14.5768 17.5246 14.5768C16.2652 14.5768 15.2115 15.473 15.2115 17.0396C15.2115 18.6316 16.2271 19.4543 17.5348 19.4543C18.1924 19.4543 18.784 19.1953 19.0963 18.8805V16.6816H17.3418Z" fill="#C1A178"/>
</svg>
