<svg width="26" height="26" viewBox="0 0 26 26" fill="none" xmlns="http://www.w3.org/2000/svg">
<path d="M21.6988 7.32773L16.2348 1.86367C16.0824 1.71133 15.8768 1.625 15.6609 1.625H4.875C4.42559 1.625 4.0625 1.98809 4.0625 2.4375V23.5625C4.0625 24.0119 4.42559 24.375 4.875 24.375H21.125C21.5744 24.375 21.9375 24.0119 21.9375 23.5625V7.9041C21.9375 7.68828 21.8512 7.48008 21.6988 7.32773ZM20.0637 8.27734H15.2852V3.49883L20.0637 8.27734ZM20.1094 22.5469H5.89062V3.45312H13.5586V8.9375C13.5586 9.22033 13.6709 9.49157 13.8709 9.69156C14.0709 9.89155 14.3422 10.0039 14.625 10.0039H20.1094V22.5469ZM13.4088 11.9844H12.5912C12.4516 11.9844 12.3297 12.0783 12.2967 12.2154L11.0348 17.2656L9.86426 12.2205C9.83125 12.0834 9.70937 11.9844 9.56719 11.9844H8.66836C8.62165 11.9844 8.57559 11.9952 8.53371 12.0159C8.49184 12.0366 8.45526 12.0666 8.42681 12.1036C8.39836 12.1407 8.37878 12.1838 8.3696 12.2295C8.36041 12.2753 8.36186 12.3226 8.37383 12.3678L10.2578 19.3756C10.2934 19.5076 10.4152 19.6016 10.5523 19.6016H11.3648C11.502 19.6016 11.6238 19.5102 11.6594 19.3756L13 14.3736L14.3406 19.3756C14.3762 19.5076 14.498 19.6016 14.6352 19.6016H15.4426C15.5797 19.6016 15.7016 19.5102 15.7371 19.3756L17.6262 12.3678C17.638 12.3226 17.6394 12.2754 17.6302 12.2296C17.6209 12.1839 17.6014 12.1409 17.5729 12.1038C17.5445 12.0668 17.508 12.0368 17.4661 12.0161C17.4243 11.9954 17.3783 11.9845 17.3316 11.9844H16.4277C16.2855 11.9844 16.1637 12.0834 16.1307 12.2205L14.9678 17.2758L13.7033 12.2154C13.6703 12.0783 13.5484 11.9844 13.4088 11.9844Z" fill="#2F80ED"/>
</svg>
