<svg width="26" height="26" viewBox="0 0 26 26" fill="none" xmlns="http://www.w3.org/2000/svg">
<path d="M13.49 14.5844L13.4977 14.5488C13.6449 13.942 13.8303 13.1854 13.6855 12.4998C13.5891 11.959 13.1904 11.7482 12.8502 11.733C12.449 11.7152 12.091 11.9438 12.0021 12.2764C11.8346 12.8857 11.9844 13.7186 12.2586 14.7799C11.9133 15.6025 11.3623 16.7984 10.9586 17.5094C10.207 17.8979 9.19902 18.4971 9.04922 19.2537C9.01875 19.3934 9.0543 19.5711 9.13809 19.7311C9.23203 19.9088 9.38184 20.0459 9.55703 20.1119C9.6332 20.1398 9.72461 20.1627 9.83125 20.1627C10.2781 20.1627 11.0018 19.8021 11.9666 18.1467C12.1139 18.0984 12.2662 18.0477 12.4135 17.9969C13.1041 17.7633 13.8201 17.5195 14.4676 17.4104C15.1836 17.7938 15.9986 18.04 16.5521 18.04C17.1006 18.04 17.3164 17.715 17.3977 17.5195C17.5398 17.1768 17.4713 16.7451 17.2402 16.5141C16.9051 16.184 16.09 16.0977 14.8205 16.2551C14.1959 15.8742 13.7871 15.3563 13.49 14.5844ZM10.7047 18.4412C10.3518 18.9541 10.0852 19.2105 9.94043 19.3223C10.1105 19.01 10.4432 18.6799 10.7047 18.4412ZM12.9289 12.4617C13.0609 12.6877 13.0432 13.3707 12.9416 13.716C12.8172 13.2107 12.7994 12.4947 12.873 12.4109C12.8934 12.4135 12.9111 12.4287 12.9289 12.4617ZM12.8883 15.5213C13.16 15.991 13.5027 16.3947 13.8811 16.6943C13.3326 16.8188 12.8324 17.0244 12.3855 17.2072C12.2789 17.2504 12.1748 17.2936 12.0732 17.3342C12.4109 16.7223 12.6928 16.0291 12.8883 15.5213ZM16.8391 17.1844C16.8416 17.1895 16.8441 17.1971 16.8289 17.2072H16.8238L16.8188 17.2148C16.7984 17.2275 16.5902 17.3494 15.6939 16.9965C16.7248 16.9482 16.8365 17.1818 16.8391 17.1844ZM21.6988 7.32773L16.2348 1.86367C16.0824 1.71133 15.8768 1.625 15.6609 1.625H4.875C4.42559 1.625 4.0625 1.98809 4.0625 2.4375V23.5625C4.0625 24.0119 4.42559 24.375 4.875 24.375H21.125C21.5744 24.375 21.9375 24.0119 21.9375 23.5625V7.9041C21.9375 7.68828 21.8512 7.48008 21.6988 7.32773ZM20.0637 8.27734H15.2852V3.49883L20.0637 8.27734ZM20.1094 22.5469H5.89062V3.45312H13.5586V8.9375C13.5586 9.22033 13.6709 9.49157 13.8709 9.69156C14.0709 9.89155 14.3422 10.0039 14.625 10.0039H20.1094V22.5469Z" fill="#B7391D"/>
</svg>
