<svg width="26" height="26" viewBox="0 0 26 26" fill="none" xmlns="http://www.w3.org/2000/svg">
<path d="M21.6988 7.32773L16.2348 1.86367C16.0824 1.71133 15.8768 1.625 15.6609 1.625H4.875C4.42559 1.625 4.0625 1.98809 4.0625 2.4375V23.5625C4.0625 24.0119 4.42559 24.375 4.875 24.375H21.125C21.5744 24.375 21.9375 24.0119 21.9375 23.5625V7.9041C21.9375 7.68828 21.8512 7.48008 21.6988 7.32773ZM20.0637 8.27734H15.2852V3.49883L20.0637 8.27734ZM20.1094 22.5469H5.89062V3.45312H13.5586V8.9375C13.5586 9.22033 13.6709 9.49157 13.8709 9.69156C14.0709 9.89155 14.3422 10.0039 14.625 10.0039H20.1094V22.5469ZM13.0533 14.7291L11.4842 12.1291C11.4283 12.0377 11.3293 11.9818 11.2227 11.9818H10.2477C10.1893 11.9818 10.1334 11.9971 10.0852 12.0301C9.94297 12.1189 9.8998 12.3068 9.99121 12.4516L12.0809 15.7625L9.96328 19.1344C9.93451 19.1806 9.91862 19.2337 9.91725 19.2882C9.91587 19.3426 9.92908 19.3964 9.95548 19.4441C9.98189 19.4917 10.0205 19.5314 10.0674 19.5591C10.1144 19.5868 10.1678 19.6015 10.2223 19.6016H11.0982C11.2049 19.6016 11.3014 19.5457 11.3572 19.4568L12.9492 16.8797L14.5311 19.4543C14.5869 19.5457 14.6859 19.599 14.79 19.599H15.7422C15.8006 19.599 15.8564 19.5812 15.9072 19.5508C16.0494 19.4594 16.09 19.2715 15.9986 19.1293L13.8658 15.8184L16.0316 12.4541C16.061 12.408 16.0774 12.3549 16.0792 12.3003C16.081 12.2456 16.0682 12.1915 16.042 12.1436C16.0158 12.0956 15.9772 12.0556 15.9303 12.0276C15.8834 11.9996 15.8298 11.9846 15.7752 11.9844H14.8687C14.7621 11.9844 14.6631 12.0402 14.6072 12.1316L13.0533 14.7291Z" fill="#1A936F"/>
</svg>
