<svg width="99" height="22" viewBox="0 0 99 22" fill="none" xmlns="http://www.w3.org/2000/svg">
<path d="M43.0793 10.996H47.3787C47.4089 10.9961 47.4388 10.989 47.4659 10.9755C47.493 10.9619 47.5166 10.9422 47.5347 10.9179L51.5562 5.58576C51.571 5.5655 51.58 5.54157 51.5821 5.51657C51.5842 5.49156 51.5794 5.46646 51.5683 5.44398C51.5571 5.42151 51.54 5.40254 51.5188 5.38914C51.4976 5.37573 51.4731 5.36841 51.4481 5.36798H47.4717C47.4383 5.36814 47.4053 5.37601 47.3754 5.39097C47.3455 5.40594 47.3195 5.4276 47.2993 5.45427L43.2531 10.9097C43.2332 10.937 43.207 10.9591 43.1767 10.9741C43.1465 10.9891 43.113 10.9966 43.0793 10.996Z" fill="#B3B3B3"/>
<path d="M42.8068 10.5523L42.9436 10.3605L41.0479 7.62524L43.1134 10.1304L43.2297 9.97289L41.4804 7.4376L43.3967 9.76606L43.5267 9.59074L41.9102 7.26228L43.6718 9.40036L43.8087 9.2086L42.3345 7.06504L43.9442 9.01958L44.0989 8.81002L42.7616 6.87877L44.2193 8.6484L44.3863 8.42103L43.1887 6.69112L44.4945 8.28406L44.6738 8.04163L43.6157 6.50347L44.7696 7.90466L44.9516 7.65949L43.2653 5.3817C43.2455 5.35498 43.2197 5.33326 43.19 5.31827C43.1603 5.30329 43.1275 5.29546 43.0942 5.29541H39.1179C39.0927 5.2956 39.0681 5.30273 39.0467 5.31604C39.0253 5.32934 39.008 5.3483 38.9967 5.37081C38.9853 5.39333 38.9804 5.41854 38.9825 5.44366C38.9846 5.46878 38.9936 5.49284 39.0084 5.51319L42.8068 10.5523Z" fill="#B2B2B2" fill-opacity="0.5"/>
<path d="M47.5347 11.7507C47.5166 11.7265 47.493 11.7068 47.4659 11.6932C47.4388 11.6796 47.4089 11.6726 47.3787 11.6727H43.0793C43.1126 11.6725 43.1455 11.6802 43.1752 11.6952C43.2049 11.7102 43.2307 11.7321 43.2504 11.759L47.2993 17.213C47.3192 17.24 47.3452 17.2618 47.3752 17.2768C47.4052 17.2918 47.4382 17.2995 47.4717 17.2993H51.4481C51.4729 17.2987 51.4971 17.2914 51.5181 17.278C51.5391 17.2647 51.556 17.2459 51.5672 17.2237C51.5783 17.2014 51.5831 17.1766 51.5812 17.1518C51.5793 17.127 51.5706 17.1032 51.5562 17.0829L47.5347 11.7507Z" fill="#B3B3B3"/>
<path d="M43.4943 16.0899L44.5524 14.56L44.3731 14.3175L43.0673 15.9036L44.265 14.1723L44.098 13.9477L42.6402 15.7173L43.9775 13.7847L43.8228 13.5765L42.2132 15.5297L43.6901 13.3971L43.5532 13.2067L41.7861 15.342L43.4026 13.0136L43.2726 12.8396L41.3563 15.1681L43.1166 12.6219L42.9975 12.4657L40.9265 14.9709L42.8209 12.2315L42.684 12.0397L38.887 17.0829C38.8726 17.1033 38.8639 17.1272 38.862 17.1521C38.8602 17.177 38.8651 17.202 38.8764 17.2242C38.8877 17.2465 38.9049 17.2653 38.926 17.2785C38.9472 17.2918 38.9716 17.299 38.9966 17.2993H42.9797C43.013 17.2996 43.0459 17.2919 43.0757 17.2769C43.1054 17.2619 43.1312 17.24 43.1508 17.213L44.8303 14.9311L44.6482 14.686L43.4943 16.0899Z" fill="#B2B2B2" fill-opacity="0.5"/>
<path d="M12.6241 3.22853C12.4369 3.05949 12.2884 2.85212 12.1885 2.6205C12.0885 2.38888 12.0396 2.13845 12.0451 1.88624C12.0407 1.63498 12.0901 1.3857 12.19 1.15512C12.2898 0.92455 12.4378 0.718028 12.6241 0.549428C13.0389 0.176835 13.5823 -0.0196482 14.1393 0.00155357C14.7594 0.00155357 15.2658 0.174134 15.6545 0.520665C15.8419 0.680612 15.9915 0.880152 16.0926 1.10492C16.1937 1.32968 16.2437 1.57407 16.239 1.8205C16.2463 2.08155 16.198 2.34117 16.0972 2.58207C15.9965 2.82297 15.8455 3.03962 15.6545 3.21758C15.2415 3.59311 14.6968 3.79004 14.1393 3.76545C13.5837 3.79023 13.0403 3.59766 12.6241 3.22853Z" fill="#B3B3B3"/>
<path d="M2.20783 16.8624C1.28345 16.6241 0.547509 16.3246 0 15.9639L1.12513 13.5382C1.71132 13.8987 2.34665 14.1723 3.0113 14.3504C3.71459 14.555 4.44293 14.6605 5.17533 14.664C6.60433 14.664 7.31883 14.3102 7.31883 13.6025C7.31883 13.2711 7.12309 13.0327 6.73436 12.8876C6.14895 12.7022 5.54563 12.5792 4.93442 12.5205C4.13775 12.4089 3.34975 12.2423 2.57603 12.0219C1.95862 11.8381 1.40056 11.4947 0.958141 11.0262C0.501883 10.5495 0.273754 9.8706 0.273754 8.98943C0.266217 8.28252 0.493459 7.59311 0.919815 7.02941C1.34596 6.45962 1.96647 6.01584 2.78135 5.69808C3.70663 5.36127 4.68646 5.19963 5.67082 5.22143C6.49959 5.22294 7.32573 5.31479 8.13461 5.49536C8.84408 5.6366 9.52682 5.88899 10.1577 6.24321L9.02569 8.6429C8.00203 8.06639 6.84543 7.76796 5.67082 7.77726C4.94902 7.77726 4.4079 7.87816 4.04746 8.07996C3.6861 8.28267 3.50679 8.54291 3.50679 8.85931C3.50679 9.22456 3.70162 9.4775 4.09126 9.61812C4.69786 9.81195 5.321 9.9495 5.95279 10.029C6.74115 10.1517 7.5214 10.3218 8.28929 10.5385C8.89519 10.7186 9.44135 11.0588 9.87022 11.5234C10.3164 12 10.5395 12.6643 10.5395 13.5162C10.5479 14.2139 10.3186 14.8936 9.88938 15.4434C9.45685 16.0077 8.82584 16.4446 7.99637 16.7542C7.16689 17.0637 6.18183 17.219 5.04119 17.2199C4.08543 17.2211 3.13338 17.101 2.20783 16.8624Z" fill="#B3B3B3"/>
<path d="M15.8283 5.39398H12.4516V17.0459H15.8283V5.39398Z" fill="#B3B3B3"/>
<path d="M26.2491 16.483C25.8812 16.7436 25.466 16.9297 25.0268 17.0309C24.5276 17.1549 24.0149 17.2166 23.5006 17.2144C22.1154 17.2144 21.0441 16.8606 20.2867 16.1529C19.5293 15.4452 19.1506 14.4056 19.1506 13.0341V8.25391H17.3534V5.65151H19.1506V2.81763H22.5274V5.65425H25.4278V8.25665H22.5274V12.9971C22.5274 13.4875 22.6533 13.8664 22.9052 14.134C23.157 14.4015 23.5143 14.5348 23.9769 14.5339C24.469 14.5494 24.9518 14.3967 25.3457 14.1011L26.2491 16.483Z" fill="#B3B3B3"/>
<path d="M39.084 12.1739H30.276C30.4159 12.8683 30.8191 13.4814 31.4011 13.8847C31.9924 14.3038 32.7283 14.5129 33.6089 14.512C34.1586 14.5207 34.7053 14.4278 35.2213 14.2381C35.7107 14.0438 36.1558 13.7527 36.5299 13.382L38.3257 15.342C37.2307 16.5985 35.6288 17.2267 33.5199 17.2267C32.2068 17.2267 31.0457 16.9706 30.0364 16.4583C29.0692 15.9853 28.2579 15.2448 27.6986 14.3243C27.1433 13.3882 26.8589 12.316 26.8773 11.2275C26.8623 10.1441 27.1429 9.07718 27.689 8.14158C28.2194 7.23377 28.9913 6.4912 29.9187 5.99665C30.8864 5.49734 31.9584 5.23408 33.0472 5.22837C34.136 5.22265 35.2107 5.47465 36.1836 5.96378C37.0963 6.44457 37.8517 7.17768 38.3599 8.07584C38.8989 9.05058 39.1704 10.1507 39.147 11.2645C39.147 11.3069 39.1278 11.611 39.084 12.1739ZM31.1848 8.42648C30.652 8.8775 30.3097 9.51369 30.2267 10.2071H35.9618C35.874 9.52103 35.5351 8.89195 35.0105 8.44154C34.4769 7.99682 33.7994 7.7621 33.1052 7.78135C32.4085 7.75894 31.7269 7.9879 31.1848 8.42648Z" fill="#B3B3B3"/>
<path d="M62.7528 5.89119C63.6322 6.38165 64.356 7.10974 64.8416 7.99229C65.3462 8.89445 65.5985 9.94454 65.5985 11.1426C65.5985 12.3406 65.3462 13.3907 64.8416 14.2928C64.3564 15.1757 63.6325 15.9038 62.7528 16.3939C61.8501 16.8964 60.8319 17.1542 59.799 17.1418C58.3125 17.1418 57.1436 16.6724 56.2922 15.7338V21.1769H52.9155V5.32277H56.1403V6.66506C56.9771 5.65606 58.1966 5.1511 59.799 5.15019C60.8313 5.1356 61.8495 5.39103 62.7528 5.89119ZM61.3457 13.4929C61.9014 12.9076 62.1793 12.1246 62.1793 11.1439C62.1793 10.1632 61.9014 9.37978 61.3457 8.79355C60.7781 8.23188 60.0121 7.91686 59.2139 7.91686C58.4156 7.91686 57.6496 8.23188 57.082 8.79355C56.5263 9.37795 56.2484 10.1614 56.2484 11.1439C56.2484 12.1265 56.5249 12.9113 57.0779 13.4984C57.6451 14.0608 58.4113 14.3762 59.2098 14.3762C60.0082 14.3762 60.7744 14.0608 61.3416 13.4984L61.3457 13.4929Z" fill="#B3B3B3"/>
<path d="M79.0655 12.1013H70.2561C70.3964 12.7959 70.7995 13.4094 71.3812 13.8134C71.9726 14.2326 72.7085 14.4417 73.5891 14.4408C74.1388 14.449 74.6853 14.3562 75.2015 14.1668C75.6921 13.9745 76.1386 13.6847 76.5141 13.3149L78.31 15.2639C77.215 16.5195 75.6135 17.1477 73.5056 17.1486C72.1934 17.1486 71.0318 16.892 70.0207 16.3789C69.0528 15.9064 68.2406 15.1664 67.6801 14.2463C67.1256 13.3098 66.8413 12.2378 66.8588 11.1494C66.844 10.0656 67.1246 8.9983 67.6705 8.06214C68.2017 7.15582 68.9729 6.414 69.8989 5.91858C70.8673 5.4201 71.9397 5.15778 73.0287 5.15302C74.1177 5.14826 75.1924 5.40119 76.1651 5.89118C77.0771 6.37244 77.832 7.10546 78.3401 8.00324C78.8666 8.91636 79.1299 9.98107 79.1299 11.1973C79.1299 11.2375 79.1084 11.5389 79.0655 12.1013ZM71.165 8.35662C70.6328 8.80816 70.2906 9.44408 70.2068 10.1372H75.9434C75.8536 9.45063 75.5121 8.82192 74.9852 8.37306C74.4564 7.92743 73.7834 7.68982 73.0922 7.70465C72.3924 7.683 71.7081 7.91446 71.165 8.35662Z" fill="#B3B3B3"/>
<path d="M85.5265 5.58303C86.2794 5.2815 87.0851 5.13431 87.8959 5.15021V8.26899C87.5208 8.24022 87.269 8.22516 87.139 8.22516C86.1699 8.2215 85.4116 8.49361 84.8641 9.04149C84.3165 9.58936 84.0428 10.4016 84.0428 11.4782V16.9788H80.6674V5.32279H83.8922V6.86095C84.3063 6.28987 84.8727 5.84699 85.5265 5.58303Z" fill="#B3B3B3"/>
<path d="M98.1766 16.4117C97.8091 16.673 97.3938 16.8591 96.9543 16.9596C96.4553 17.0848 95.9426 17.1469 95.4281 17.1445C94.0429 17.1445 92.9716 16.7907 92.2143 16.083C91.4569 15.3753 91.0782 14.3358 91.0782 12.9642V8.1813H89.281V5.57889H91.0782V2.74091H94.4549V5.583H97.354V8.18541H94.4549V12.9245C94.4549 13.4167 94.5809 13.7961 94.8327 14.0627C95.0846 14.3294 95.4418 14.4627 95.9045 14.4627C96.3966 14.4781 96.8793 14.3255 97.2732 14.0299L98.1766 16.4117Z" fill="#B3B3B3"/>
</svg>
