<svg width="99" height="20" viewBox="0 0 99 20" fill="none" xmlns="http://www.w3.org/2000/svg">
<path opacity="0.5" d="M42.8068 9.80011L42.9436 9.62202L41.0479 7.08173L43.1134 9.40832L43.2297 9.26203L41.4804 6.90746L43.3967 9.06995L43.5267 8.90713L41.9102 6.74464L43.6718 8.73031L43.8087 8.55223L42.3345 6.56146L43.9442 8.37668L44.0989 8.18206L42.7616 6.38846L44.2193 8.03196L44.3863 7.8208L43.1887 6.21419L44.4945 7.69359L44.6738 7.46844L43.6157 6.03992L44.7696 7.34123L44.9516 7.11353L43.2653 4.99811C43.2455 4.97329 43.2197 4.95312 43.19 4.9392C43.1603 4.92529 43.1275 4.91802 43.0942 4.91797H39.1179C39.0927 4.91814 39.0681 4.92477 39.0467 4.93713C39.0253 4.94948 39.008 4.96709 38.9967 4.988C38.9853 5.00891 38.9804 5.03232 38.9825 5.05565C38.9846 5.07898 38.9936 5.10132 39.0084 5.12023L42.8068 9.80011Z" fill="white"/>
<path opacity="0.5" d="M43.4944 14.9431L44.5524 13.5222L44.3731 13.2971L43.0673 14.7701L44.265 13.1622L44.098 12.9536L42.6402 14.5971L43.9775 12.8022L43.8229 12.6089L42.2132 14.4228L43.6901 12.4422L43.5532 12.2654L41.7861 14.2486L43.4026 12.0861L43.2726 11.9245L41.3563 14.087L43.1166 11.7223L42.9975 11.5773L40.9265 13.9038L42.8209 11.3597L42.684 11.1816L38.887 15.8654C38.8726 15.8843 38.8639 15.9065 38.862 15.9296C38.8602 15.9527 38.8651 15.9759 38.8764 15.9966C38.8877 16.0173 38.9049 16.0347 38.926 16.047C38.9472 16.0593 38.9716 16.066 38.9966 16.0663H42.9797C43.013 16.0666 43.0459 16.0595 43.0757 16.0455C43.1054 16.0316 43.1312 16.0112 43.1508 15.9862L44.8303 13.867L44.6482 13.6393L43.4944 14.9431Z" fill="white"/>
<path fill-rule="evenodd" clip-rule="evenodd" d="M12.1885 2.43371C12.2884 2.64882 12.4369 2.84141 12.6241 2.9984C13.0403 3.34122 13.5837 3.52006 14.1393 3.49705C14.6968 3.51989 15.2415 3.337 15.6545 2.98823C15.8455 2.82295 15.9965 2.62175 16.0972 2.39802C16.198 2.17429 16.2464 1.93318 16.239 1.69073C16.2437 1.46187 16.1937 1.2349 16.0926 1.02616C15.9915 0.817415 15.8419 0.632098 15.6545 0.483552C15.2658 0.161722 14.7594 0.00144283 14.1393 0.00144283C13.5823 -0.0182477 13.0389 0.16423 12.6241 0.510265C12.4379 0.666847 12.2898 0.858648 12.19 1.07279C12.0901 1.28692 12.0407 1.51844 12.0451 1.75179C12.0397 1.98603 12.0886 2.2186 12.1885 2.43371ZM47.3787 10.2122H43.0868C43.118 10.2117 43.1487 10.2048 43.1767 10.1919C43.207 10.1779 43.2332 10.1574 43.2531 10.1321L47.2993 5.06549C47.3195 5.04072 47.3455 5.0206 47.3754 5.0067C47.4053 4.9928 47.4383 4.9855 47.4717 4.98535H51.4481C51.4731 4.98575 51.4976 4.99255 51.5188 5.005C51.54 5.01745 51.5571 5.03507 51.5683 5.05594C51.5794 5.07681 51.5842 5.10013 51.5821 5.12335C51.58 5.14657 51.571 5.1688 51.5562 5.18761L47.5347 10.1397C47.5166 10.1623 47.493 10.1806 47.4659 10.1932C47.4388 10.2058 47.4089 10.2123 47.3787 10.2122ZM47.5347 10.9132C47.5166 10.8907 47.493 10.8724 47.4659 10.8598C47.4388 10.8472 47.4089 10.8407 47.3787 10.8407H43.0814C43.114 10.8409 43.1461 10.848 43.1752 10.8617C43.2049 10.8756 43.2307 10.8959 43.2504 10.9208L47.2993 15.9861C47.3192 16.0111 47.3452 16.0314 47.3752 16.0453C47.4052 16.0593 47.4382 16.0664 47.4717 16.0663H51.4481C51.4729 16.0657 51.4971 16.0589 51.5181 16.0465C51.5391 16.0341 51.556 16.0167 51.5672 15.996C51.5783 15.9753 51.5831 15.9523 51.5812 15.9292C51.5793 15.9062 51.5706 15.8841 51.5562 15.8653L47.5347 10.9132ZM2.20783 15.6605C1.28345 15.4392 0.547509 15.161 0 14.8261L1.12513 12.5732C1.71132 12.9081 2.34665 13.1622 3.0113 13.3276C3.71459 13.5176 4.44293 13.6156 5.17533 13.6189C6.60432 13.6189 7.31882 13.2902 7.31882 12.633C7.31882 12.3252 7.12309 12.1038 6.73436 11.969C6.14895 11.7969 5.54563 11.6826 4.93442 11.6281C4.13775 11.5244 3.34974 11.3697 2.57603 11.165C1.95861 10.9944 1.40055 10.6754 0.95814 10.2402C0.501883 9.79757 0.273754 9.16705 0.273754 8.34868C0.266216 7.69215 0.493459 7.05188 0.919815 6.52835C1.34596 5.99917 1.96647 5.58702 2.78134 5.2919C3.70663 4.97909 4.68646 4.82898 5.67082 4.84922C6.49959 4.85062 7.32573 4.93593 8.13461 5.10363C8.84408 5.2348 9.52682 5.4692 10.1577 5.79818L9.02568 8.02685C8.00202 7.49143 6.84543 7.21426 5.67082 7.2229C4.94902 7.2229 4.4079 7.31661 4.04746 7.50403C3.6861 7.69229 3.50679 7.93398 3.50679 8.22783C3.50679 8.56705 3.70162 8.80196 4.09126 8.93256C4.69786 9.11258 5.32099 9.24033 5.95279 9.31418C6.74115 9.4281 7.5214 9.58613 8.28928 9.78739C8.89518 9.95457 9.44134 10.2705 9.87021 10.702C10.3164 11.1447 10.5395 11.7616 10.5395 12.5529C10.5479 13.2008 10.3186 13.832 9.88938 14.3427C9.45685 14.8668 8.82584 15.2726 7.99637 15.56C7.16689 15.8475 6.18183 15.9917 5.04119 15.9925C4.08543 15.9937 3.13337 15.8821 2.20783 15.6605ZM12.4516 5.00952H15.8284V15.8309H12.4516V5.00952ZM26.2491 15.3082C25.8812 15.5502 25.466 15.7231 25.0268 15.817C24.5276 15.9322 24.0149 15.9894 23.5006 15.9874C22.1154 15.9874 21.0441 15.6588 20.2867 15.0016C19.5293 14.3444 19.1506 13.3789 19.1506 12.1051V7.66563H17.3534V5.24871H19.1506V2.61682H22.5274V5.25126H25.4278V7.66817H22.5274V12.0708C22.5274 12.5262 22.6533 12.8781 22.9052 13.1266C23.157 13.3751 23.5143 13.4989 23.9769 13.498C24.469 13.5124 24.9518 13.3706 25.3457 13.096L26.2491 15.3082ZM30.276 11.3063H39.084C39.1278 10.7835 39.147 10.5011 39.147 10.4616C39.1704 9.42728 38.8989 8.40557 38.3599 7.5003C37.8517 6.66617 37.0963 5.98531 36.1836 5.5388C35.2107 5.08453 34.136 4.8505 33.0472 4.8558C31.9584 4.86111 30.8864 5.1056 29.9187 5.56932C28.9913 6.02862 28.2194 6.71826 27.689 7.56136C27.1429 8.43027 26.8623 9.42116 26.8773 10.4273C26.8589 11.4382 27.1433 12.434 27.6986 13.3034C28.2579 14.1582 29.0692 14.846 30.0364 15.2853C31.0457 15.761 32.2068 15.9989 33.52 15.9989C35.6288 15.9989 37.2307 15.4155 38.3257 14.2486L36.5299 12.4282C36.1558 12.7725 35.7107 13.0429 35.2213 13.2233C34.7053 13.3995 34.1587 13.4858 33.6089 13.4777C32.7283 13.4785 31.9924 13.2843 31.4011 12.8951C30.8191 12.5206 30.4159 11.9512 30.276 11.3063ZM30.2267 9.47962C30.3097 8.83567 30.652 8.24482 31.1848 7.82595C31.7269 7.41864 32.4085 7.206 33.1052 7.22681C33.7994 7.20893 34.4769 7.42692 35.0105 7.83994C35.5351 8.25825 35.874 8.84248 35.9618 9.47962H30.2267ZM62.7528 5.47132C63.6322 5.92683 64.356 6.60302 64.8416 7.42266C65.3462 8.26052 65.5985 9.23577 65.5985 10.3484C65.5985 11.461 65.3462 12.4363 64.8416 13.2741C64.3564 14.094 63.6325 14.7703 62.7528 15.2255C61.8501 15.6921 60.8319 15.9315 59.799 15.92C58.3125 15.92 57.1436 15.4841 56.2922 14.6123V19.6675H52.9155V4.94342H56.1403V6.19004C56.9771 5.25296 58.1966 4.78399 59.799 4.78314C60.8313 4.76959 61.8495 5.00681 62.7528 5.47132ZM61.3457 12.5312C61.9015 11.9876 62.1793 11.2605 62.1793 10.3497C62.1793 9.43887 61.9015 8.71126 61.3457 8.16681C60.7782 7.64518 60.0121 7.35261 59.2139 7.35261C58.4156 7.35261 57.6496 7.64518 57.082 8.16681C56.5263 8.70956 56.2484 9.43717 56.2484 10.3497C56.2484 11.2622 56.5249 11.991 57.0779 12.5363C57.6451 13.0586 58.4113 13.3516 59.2098 13.3516C60.0082 13.3516 60.7744 13.0586 61.3416 12.5363L61.3457 12.5312ZM70.2561 11.2388H79.0655C79.1084 10.7164 79.1299 10.4366 79.1299 10.3993C79.1299 9.26966 78.8666 8.28084 78.3401 7.43279C77.832 6.599 77.0771 5.91821 76.1651 5.47126C75.1924 5.01619 74.1177 4.78128 73.0287 4.78571C71.9397 4.79013 70.8673 5.03375 69.8989 5.4967C68.9729 5.95682 68.2017 6.64576 67.6705 7.48749C67.1246 8.35693 66.844 9.34819 66.8588 10.3547C66.8413 11.3656 67.1256 12.3611 67.6801 13.2309C68.2406 14.0854 69.0528 14.7727 70.0207 15.2115C71.0318 15.6881 72.1934 15.9264 73.5056 15.9264C75.6135 15.9255 77.215 15.3421 78.31 14.176L76.5141 12.3659C76.1386 12.7093 75.6921 12.9785 75.2015 13.1571C74.6853 13.3329 74.1388 13.4192 73.5891 13.4115C72.7085 13.4124 71.9726 13.2182 71.3812 12.8289C70.7995 12.4536 70.3964 11.8839 70.2561 11.2388ZM70.2068 9.41467C70.2906 8.77095 70.6328 8.18034 71.165 7.76098C71.7081 7.35034 72.3924 7.13537 73.0922 7.15548C73.7834 7.14171 74.4564 7.36239 74.9852 7.77625C75.5121 8.19312 75.8536 8.77703 75.9434 9.41467H70.2068ZM85.5265 5.18504C86.2794 4.90499 87.0851 4.7683 87.8959 4.78306V7.67955C87.5208 7.65284 87.269 7.63885 87.139 7.63885C86.1699 7.63546 85.4116 7.88817 84.8641 8.397C84.3165 8.90583 84.0428 9.66016 84.0428 10.66V15.7686H80.6674V4.94334H83.8922V6.37187C84.3063 5.84149 84.8727 5.43018 85.5265 5.18504ZM96.9543 15.7508C97.3938 15.6575 97.8091 15.4846 98.1766 15.242L97.2732 13.0299C96.8793 13.3044 96.3966 13.4462 95.9045 13.4318C95.4418 13.4318 95.0846 13.308 94.8327 13.0604C94.5809 12.8128 94.4549 12.4604 94.4549 12.0033V7.60198H97.354V5.18506H94.4549V2.54553H91.0782V5.18125H89.281V7.59817H91.0782V12.0402C91.0782 13.314 91.4569 14.2795 92.2143 14.9367C92.9716 15.5939 94.0429 15.9225 95.4281 15.9225C95.9426 15.9248 96.4553 15.8671 96.9543 15.7508Z" fill="white"/>
</svg>
