<svg width="88" height="100" viewBox="0 0 88 100" fill="none" xmlns="http://www.w3.org/2000/svg">
<path d="M37.0236 6.74609H80.3571C84.0388 6.74609 87.0238 9.76661 87.0238 13.4921V80.9527C87.0238 84.6782 84.0388 87.6987 80.3571 87.6987H37.0236C33.3419 87.6987 30.3569 84.6782 30.3569 80.9527V13.4923C30.3569 9.7668 33.3419 6.74609 37.0236 6.74609Z" fill="#5496D7"/>
<path d="M66.9932 80.9527H37.103V13.4922H80.2778V67.4605L66.9932 80.9527Z" fill="#F2F2F2"/>
<path d="M68.5848 6.74592H63.6377V5.05935C63.6377 2.26488 61.4229 0 58.6905 0C55.9581 0 53.7434 2.26488 53.7434 5.05954V6.74611H48.7963L43.8491 20.2382H73.5317L68.5848 6.74592Z" fill="#F0C044"/>
<path d="M37.103 70.1829V80.9527H66.9932L80.2778 67.2983V21.5874C67.7355 48.9693 50.6018 63.0161 37.103 70.1829Z" fill="#F0F0F0"/>
<path d="M66.7856 80.953V67.4609H80.2777L66.7856 80.953Z" fill="#91BFEC"/>
<path d="M74.2064 37.1033H50.5952V40.4763H74.2064V37.1033Z" fill="#CFCFCF"/>
<path d="M74.2064 47.2227H53.9683V50.5957H74.2064V47.2227Z" fill="#CFCFCF"/>
<path d="M74.2064 57.3418H53.9683V60.7148H74.2064V57.3418Z" fill="#CFCFCF"/>
<path d="M74.0058 26.9841H47.2222V30.3321H74.0058V26.9841Z" fill="#CFCFCF"/>
<path d="M64.0873 67.4609H53.9683V70.834H64.0873V67.4609Z" fill="#CFCFCF"/>
<path d="M45.2096 16.5025L43.8491 20.2378H73.5317L69.5989 9.44409L45.2096 16.5025Z" fill="#FED15B"/>
<path d="M17.2098 41.4748C15.6741 40.8155 14.0223 40.4763 12.3512 40.4763C5.52971 40.4763 0 46.006 0 52.8275C0.00151716 58.4064 1.30054 63.9093 3.79458 68.8989L5.95232 73.2144L8.51042 96.2307C8.74844 98.3765 10.5609 100 12.7202 100C14.8169 100 16.5997 98.4658 16.9106 96.3914L20.171 74.6534C20.5519 72.1162 22.7319 70.2383 25.2974 70.2383C27.863 70.2383 30.0429 72.1162 30.4239 74.6534L33.6843 96.3914C33.9955 98.4658 35.7783 100 37.875 100C40.0343 100 41.8468 98.3765 42.0848 96.2307L44.6429 73.2144L46.8006 68.8989C49.2947 63.9093 50.5939 58.4064 50.5952 52.8275C50.5952 46.006 45.0655 40.4763 38.244 40.4763C36.5715 40.4763 34.9181 40.8157 33.3809 41.4748C28.2173 43.6861 22.3735 43.6861 17.2098 41.4748Z" fill="#E3EEF8"/>
<path d="M7.44052 56.8453H4.46436V54.7695C4.45998 50.9198 6.38542 47.3231 9.59084 45.1907L11.2427 47.6668C8.8648 49.2472 7.43766 51.9139 7.44069 54.7695V56.8453H7.44052Z" fill="white"/>
<path d="M8.51022 96.231C8.76915 98.5569 10.8643 100.232 13.1888 99.9735C15.0981 99.7607 16.6248 98.2919 16.9106 96.3916L19.9805 75.9199C15.7349 77.8261 11.2944 79.2607 6.73633 80.1997L8.51022 96.231Z" fill="#D1E4F4"/>
<path d="M28.4092 71.2987C29.4955 72.1082 30.2186 73.3137 30.4241 74.6528L33.6845 96.3909C34.0313 98.7049 36.189 100.299 38.503 99.9518C40.4018 99.6661 41.8721 98.1393 42.0848 96.23L44.6429 73.2137L46.8007 68.8982C49.2947 63.9087 50.5939 58.4057 50.5953 52.8268C50.5937 51.0263 50.1949 49.248 49.4286 47.6184C44.5893 57.1976 37.3468 65.3569 28.4092 71.2987Z" fill="#D1E4F4"/>
</svg>
