<svg width="100" height="100" viewBox="0 0 100 100" fill="none" xmlns="http://www.w3.org/2000/svg">
<path d="M93.899 28.4155L75.8628 10.345V82.7589H100.001V43.0877C100.001 37.5794 97.804 32.2986 93.899 28.4155Z" fill="#FFDFBA"/>
<path d="M14.0976 69.5629L0.462614 34.1663C-0.905902 30.613 0.864459 26.6216 4.4197 25.2524L68.7769 0.462736C72.3302 -0.90578 76.3216 0.864582 77.6901 4.41982L91.3251 39.8165C92.6936 43.3698 90.9233 47.3612 87.368 48.7303L23.0128 73.52C19.4575 74.8885 15.4681 73.1162 14.0976 69.5629Z" fill="#91BFEC"/>
<path d="M82.6039 17.1724L5.43848 47.0831L10.5767 60.4212L87.7454 30.5243L82.6039 17.1724Z" fill="#FED15B"/>
<path d="M0 44.8278V6.89669C0 3.08807 3.08807 0 6.89669 0H75.8623C79.6709 0 82.759 3.08807 82.759 6.89669V44.8278C82.759 48.6364 79.6709 51.7245 75.8623 51.7245H6.89669C3.08807 51.7245 0 48.6364 0 44.8278Z" fill="#4398D1"/>
<path d="M75.8632 0H68.5356L16.811 51.7245H75.8632C79.6718 51.7245 82.7598 48.6364 82.7598 44.8278V6.89669C82.7598 3.08807 79.6718 0 75.8632 0Z" fill="#629FDB"/>
<path d="M6.89746 27.5859H13.7941V31.0343H6.89746V27.5859Z" fill="#5EB3D1"/>
<path d="M6.89746 37.9309H13.7941V41.3793H6.89746V37.9309Z" fill="#5EB3D1"/>
<path d="M37.9321 37.9309H44.8288V41.3793H37.9321V37.9309Z" fill="#5EB3D1"/>
<path d="M17.2422 27.5859H24.1382V31.0343H17.2422V27.5859Z" fill="#5EB3D1"/>
<path d="M27.5869 27.5859H34.4836V31.0343H27.5869V27.5859Z" fill="#5EB3D1"/>
<path d="M37.9321 27.5859H44.8288V31.0343H37.9321V27.5859Z" fill="#5EB3D1"/>
<path d="M70.6904 6.89648H74.1388V12.069H70.6904V6.89648Z" fill="#5EB3D1"/>
<path d="M63.7939 6.89648H67.2423V12.069H63.7939V6.89648Z" fill="#5EB3D1"/>
<path d="M56.897 6.89648H60.3453V12.069H56.897V6.89648Z" fill="#5EB3D1"/>
<path d="M50.001 6.89648H53.4487V12.069H50.001V6.89648Z" fill="#5EB3D1"/>
<path d="M68.9663 82.759H100.001V100H68.9663V82.759Z" fill="#9BE69D"/>
<path d="M63.9058 31.1466C60.9814 28.2327 56.2489 28.2413 53.3351 31.1657C50.5175 33.9932 50.4199 38.5362 53.1127 41.4831L67.242 56.897C62.9952 64.3295 63.1767 73.4947 67.7124 80.7537L68.9661 82.7589H91.3797V58.6212L63.9058 31.1466Z" fill="#FFDFBA"/>
<path d="M74.1392 87.9314H77.5875V91.3798H74.1392V87.9314Z" fill="white"/>
<path d="M6.89746 17.9311V9.65529C6.89746 8.13105 8.13203 6.89648 9.65627 6.89648H17.932C19.4563 6.89648 20.6902 8.13105 20.6902 9.65529V17.9311C20.6902 19.4553 19.4563 20.6899 17.932 20.6899H9.65627C8.13203 20.6899 6.89746 19.4553 6.89746 17.9311Z" fill="#FFE177"/>
<path d="M6.89746 12.0691H12.07V15.5174H6.89746V12.0691Z" fill="white"/>
<path d="M15.5186 12.0691H20.6904V15.5174H15.5186V12.0691Z" fill="white"/>
<path d="M89.6561 58.6213C89.1995 58.6213 88.76 58.4399 88.4374 58.1159L81.5407 51.2192C80.8788 50.535 80.898 49.4436 81.5842 48.7811C82.2533 48.1364 83.3117 48.1364 83.9788 48.7811L90.8755 55.6778C91.5479 56.3521 91.5479 57.4435 90.8755 58.1159C90.5508 58.4399 90.1134 58.6213 89.6561 58.6213Z" fill="#FFDFBA"/>
</svg>
