<svg width="104" height="100" viewBox="0 0 104 100" fill="none" xmlns="http://www.w3.org/2000/svg">
<path d="M66.3713 89.8159V98.2761C66.3713 99.2285 65.5998 100 64.6473 100H1.72393C0.771458 100 0 99.2285 0 98.2761V89.8159C0 80.9398 7.19525 73.7489 16.0735 73.7467C19.211 73.7446 21.9736 72.1305 23.564 69.6825C25.1616 67.2272 24.997 65.0921 24.997 63.3665L25.0293 63.2868C17.2932 60.0846 11.852 52.4626 11.852 43.5693V42.8948C8.78019 42.8948 6.46474 40.4673 6.46474 37.6067V28.6509C6.39578 25.5327 6.538 14.5362 14.481 6.87979C23.717 -2.02215 38.3531 -1.29379 48.9553 3.46856C49.3001 3.62372 49.2893 4.11719 48.9402 4.26157L46.1754 5.39937C45.7617 5.5696 45.8501 6.17944 46.294 6.22685L47.6365 6.37123C54.8597 7.14269 60.8698 11.4547 63.8673 16.564C63.8953 16.6135 63.8867 16.6782 63.8457 16.7213C61.4581 19.1563 60.122 22.4339 60.122 25.8473V37.2942C60.122 40.3822 57.6202 42.8948 54.5193 42.8948V43.5693C54.5193 52.4626 49.0781 60.0846 41.342 63.2868L41.3743 63.3665C41.3743 65.0432 41.1963 67.2068 42.8073 69.6825C44.3976 72.1305 47.1602 73.7446 50.2978 73.7467C59.176 73.7489 66.3713 80.9398 66.3713 89.8159Z" fill="#FFD6A6"/>
<path d="M63.8663 16.5636C63.895 16.6125 63.8863 16.6781 63.8445 16.7207C61.4584 19.1566 60.1219 22.4347 60.1219 25.8472V37.2941C60.1219 40.3819 57.6207 42.8947 54.5192 42.8947C54.5192 36.3737 54.5228 32.966 54.5215 31.1343C54.5207 29.9777 53.4033 29.1466 52.2981 29.4866C48.8239 30.5555 44.7714 31.1063 40.5124 30.1807C33.0177 28.5516 30.8951 25.6145 24.7816 24.147C17.9505 22.5092 11.7551 27.7414 11.7982 34.4345C11.8112 36.6347 11.8478 39.3844 11.8521 42.8947C8.78029 42.8947 6.46483 40.4672 6.46483 37.6066V28.6507C6.39588 25.5326 6.5381 14.5361 14.4811 6.87967C23.7162 -2.02249 38.3539 -1.2937 48.9543 3.46909C49.2991 3.62403 49.29 4.11772 48.9403 4.26166L46.1753 5.39989C45.762 5.57013 45.8491 6.17932 46.2934 6.22694L47.6364 6.37111C54.8603 7.14343 60.8699 11.4539 63.8663 16.5636Z" fill="#4297EB"/>
<path d="M52.2979 29.4867C53.4031 29.1467 54.5205 29.9769 54.5213 31.1333C54.5228 33.0285 54.519 36.6089 54.519 43.5693C54.519 52.4626 49.0778 60.0845 41.3417 63.2867C27.3526 69.0936 11.8517 58.7778 11.8517 43.5693C11.8517 39.6363 11.8121 36.8421 11.7978 34.4346C11.7547 27.7414 17.9501 22.5093 24.7812 24.1471C30.8947 25.6145 33.0173 28.5517 40.512 30.1808C44.7712 31.1061 48.8237 30.5555 52.2979 29.4867Z" fill="#FFDFBA"/>
<path d="M66.3713 89.8157V98.2759C66.3713 99.2279 65.5994 99.9998 64.6473 99.9998H1.72393C0.771889 99.9998 0 99.2279 0 98.2759V89.8157C0 80.9396 7.19633 73.7498 16.0724 73.7465C19.2108 73.7455 21.9741 72.1295 23.564 69.6824C29.1137 74.4236 37.2543 74.4264 42.8073 69.6824C44.397 72.1295 47.1605 73.7455 50.2989 73.7465C59.1749 73.7498 66.3713 80.9396 66.3713 89.8157Z" fill="url(#paint0_linear_461_3410)"/>
<path d="M50.6406 96.3368H45.4688C44.5168 96.3368 43.7449 95.5649 43.7449 94.6128C43.7449 93.6608 44.5168 92.8889 45.4688 92.8889H50.6406C51.5926 92.8889 52.3645 93.6608 52.3645 94.6128C52.3645 95.5649 51.5928 96.3368 50.6406 96.3368Z" fill="white"/>
<path d="M24.7561 78.9522C23.9592 79.2028 23.1045 79.3409 22.1883 79.3489C13.2893 79.4273 6.03375 86.4637 6.03375 95.3631V96.983C6.03375 98.6491 4.68305 99.9998 3.01688 99.9998H1.72393C0.771889 99.9998 0 99.2279 0 98.2759V89.8157C0 80.9396 7.19633 73.7498 16.0724 73.7465C19.2108 73.7455 21.9741 72.1295 23.564 69.6824C24.2048 70.2297 24.891 70.7217 25.6137 71.1525C28.7929 73.0468 28.2862 77.8422 24.7561 78.9522Z" fill="url(#paint1_linear_461_3410)"/>
<path d="M41.6152 78.9522C42.4121 79.2028 43.2667 79.3409 44.183 79.3489C53.0819 79.4273 60.3375 86.4637 60.3375 95.3631V96.983C60.3375 98.6491 61.6882 99.9998 63.3544 99.9998H64.6473C65.5994 99.9998 66.3712 99.2279 66.3712 98.2759V89.8157C66.3712 80.9396 59.1749 73.7498 50.2988 73.7465C47.1604 73.7455 44.3972 72.1295 42.8073 69.6824C42.1664 70.2297 41.4803 70.7217 40.7575 71.1525C37.5786 73.0468 38.085 77.8422 41.6152 78.9522Z" fill="#2C2C33"/>
<path d="M41.6178 66.905C36.3087 69.1273 30.4743 69.2997 24.7534 66.905C25.0456 65.6926 24.9969 64.9074 24.9969 63.3666L25.0292 63.2869C30.2187 65.4409 36.1423 65.4452 41.3419 63.2869L41.3743 63.3666C41.3743 64.908 41.3256 65.693 41.6178 66.905Z" fill="#F7C388"/>
<path d="M48.9403 4.26157C46.9087 5.09703 46.4589 5.39139 45.5258 5.23775C28.4273 2.423 14.9634 11.3633 13.1214 28.8338C13.089 29.1405 13.0104 29.4415 12.8744 29.7182C11.5631 32.3877 11.7963 34.3633 11.8241 37.6478C11.8532 41.1032 6.64606 41.3246 6.47151 37.8735C6.46052 37.658 6.46483 38.226 6.46483 28.6509C6.39588 25.5327 6.5381 14.5362 14.4811 6.87979C23.7171 -2.02215 38.3532 -1.29379 48.9554 3.46856C49.3002 3.62372 49.2894 4.11719 48.9403 4.26157Z" fill="#3C7CBB"/>
<path d="M28.3579 57.3476C31.8642 59.5402 29.0971 64.9208 25.2592 63.3807C17.3772 60.2175 11.8522 52.5328 11.8522 43.5695C11.8522 39.6318 11.8125 36.8518 11.7983 34.4348C11.7847 32.2711 12.4224 30.2603 13.5227 28.5851C14.9057 26.4795 18.2447 27.3971 18.263 30.125C18.2773 32.5501 18.3169 35.3179 18.3169 39.2597C18.3167 47.1244 22.4515 53.6538 28.3579 57.3476Z" fill="#FFEBD2"/>
<path d="M100.539 76.6121C100.489 76.6621 95.4914 81.6679 95.4313 81.7047C96.8257 84.0862 97.6252 86.8577 97.6252 89.8146V98.2758C97.6252 99.2284 96.8537 100 95.9011 100H32.9701C32.0175 100 31.246 99.2284 31.246 98.2758V89.8146C31.246 86.8577 32.0455 84.0862 33.4399 81.7047C33.3819 81.6694 33.7908 82.0707 28.3322 76.6121C26.3063 74.5862 26.1188 71.3664 27.8925 69.1185C30.0559 66.3506 29.4274 63.1567 27.4809 61.3211C25.3451 59.306 25.108 55.9914 26.9356 53.694L29.4184 50.5733C30.5628 49.1336 30.9356 47.2241 30.4141 45.459L28.8106 40.0215C27.9895 37.2435 29.4054 34.2931 32.0865 33.1961L34.205 32.3276C36.3257 31.459 37.7115 29.3944 37.7115 27.1013V21.5517C37.7115 9.6487 47.3602 0 59.2632 0H69.608C81.5104 0 91.1597 9.64612 91.1597 21.5517V27.1013C91.1597 29.3944 92.5455 31.459 94.6662 32.3276L96.7847 33.1961C99.4658 34.2931 100.882 37.2435 100.061 40.0215L98.4571 45.459C97.9356 47.2241 98.3084 49.1336 99.4528 50.5733L101.936 53.694C103.765 55.997 103.525 59.3039 101.39 61.3211C99.2589 63.3297 99.0175 66.6336 100.832 68.931C102.894 71.5687 102.456 74.6955 100.539 76.6121Z" fill="#FFDFBA"/>
<path d="M28.332 76.6121C28.382 76.6621 33.3796 81.6679 33.4398 81.7047C32.0454 84.0862 31.2458 86.8577 31.2458 89.8146V98.2758C31.2458 99.2284 32.0173 100 32.9699 100H95.9009C96.8535 100 97.6251 99.2284 97.6251 98.2758V89.8146C97.6251 86.8577 96.8255 84.0862 95.4311 81.7047C95.4891 81.6694 95.0803 82.0707 100.539 76.6121C102.565 74.5862 102.752 71.3664 100.979 69.1185C98.8152 66.3506 99.4436 63.1567 101.39 61.3211C103.526 59.306 103.763 55.9914 101.935 53.694L99.4527 50.5733C98.3083 49.1336 97.9354 47.2241 98.457 45.459L100.06 40.0215C100.882 37.2435 99.4656 34.2931 96.7846 33.1961L94.666 32.3276C92.5453 31.459 91.1596 29.3944 91.1596 27.1013V21.5517C91.1596 9.6487 81.5109 0 69.6078 0H59.263C47.3607 0 37.7113 9.64612 37.7113 21.5517V27.1013C37.7113 29.3944 36.3255 31.459 34.2048 32.3276L32.0863 33.1961C29.4053 34.2931 27.9893 37.2435 28.8104 40.0215L30.4139 45.459C30.9354 47.2241 30.5626 49.1336 29.4182 50.5733L26.9354 53.694C25.1064 55.997 25.3458 59.3039 27.4807 61.3211C29.6122 63.3297 29.8535 66.6336 28.0389 68.931C25.9773 71.5687 26.4154 74.6955 28.332 76.6121Z" fill="#FFDFBA"/>
<path d="M44.6281 38.5422C43.7565 38.6418 43.0994 39.3776 43.0994 40.2547V43.5627C43.0994 52.4549 48.5412 60.0799 56.2783 63.2825L56.2459 63.3621V64.834C56.2459 69.7353 52.2951 73.6862 47.4205 73.7435C41.3705 73.7435 36.2319 76.9364 33.4399 81.7047C33.3798 81.6679 28.3822 76.6621 28.3322 76.6121C26.3063 74.5862 26.1188 71.3664 27.8925 69.1185C30.0559 66.3506 29.4274 63.1567 27.4809 61.3211C25.3451 59.306 25.108 55.9914 26.9356 53.694L29.4184 50.5733C30.5628 49.1336 30.9356 47.2241 30.4141 45.459L28.8106 40.0215C27.9895 37.2435 29.4054 34.2931 32.0865 33.1961L34.205 32.3276C36.3257 31.459 37.7115 29.3944 37.7115 27.1013V21.5517C37.7115 9.64914 47.3606 0 59.2632 0H69.608C81.5104 0 91.1597 9.64633 91.1597 21.5517V27.1013C91.1597 29.3944 92.5455 31.459 94.6662 32.3276L96.7847 33.1961C99.4658 34.2931 100.882 37.2435 100.061 40.0215L98.4571 45.459C97.9356 47.2241 98.3084 49.1336 99.4528 50.5733L101.936 53.694C103.764 55.9968 103.526 59.3036 101.39 61.3211C99.3998 63.1968 98.8511 66.3965 100.979 69.1185C102.752 71.3664 102.565 74.5862 100.539 76.6121C100.489 76.6621 95.4914 81.6679 95.4313 81.7047C92.6623 76.9758 87.5449 73.7435 81.4507 73.7435C76.5781 73.6862 72.6253 69.7377 72.6253 64.834V63.3621L72.5929 63.2802C80.33 60.0776 85.7718 52.4569 85.7718 43.5625V32.9347C85.7718 32.2101 85.3205 31.5621 84.639 31.3155C80.889 29.9595 77.7229 27.3465 75.6873 23.8556C75.0927 22.836 73.6649 22.7168 72.8938 23.6106C65.6785 31.9737 55.6636 37.2821 44.6281 38.5422Z" fill="#FED15B"/>
<path d="M84.639 31.3158C85.3205 31.5621 85.7718 32.2102 85.7718 32.935V43.5628C85.7718 52.4572 80.33 60.0778 72.5929 63.2804C58.5979 69.0895 43.0994 58.7694 43.0994 43.5625V40.2546C43.0994 39.3774 43.7565 38.6416 44.628 38.5421C55.6448 37.2841 65.6662 31.988 72.8938 23.6108C73.6649 22.7171 75.0927 22.836 75.6873 23.8559C77.7209 27.3438 80.8849 29.9582 84.639 31.3158Z" fill="#FFEBD2"/>
<path d="M97.6251 89.8148V98.276C97.6251 99.2286 96.8536 100 95.901 100H32.97C32.0174 100 31.2458 99.2286 31.2458 98.276V89.8148C31.2458 80.946 38.4351 73.7437 47.317 73.7437C48.5624 73.7437 49.8221 73.4887 51.0195 72.9441L51.0734 73.0605L63.3795 82.5885C64.0023 83.0691 64.8687 83.0691 65.4915 82.5885L77.7976 73.0605L77.8514 72.9441C78.9506 73.4441 80.1682 73.7286 81.4506 73.7437C90.6786 73.7437 97.6251 81.1456 97.6251 89.8148Z" fill="#4297EB"/>
<path d="M77.1791 1.36897C79.9334 2.40172 79.144 6.48319 76.2024 6.46595C76.0953 6.4653 65.8358 6.46552 65.7287 6.46552C53.8261 6.46552 44.177 16.1147 44.177 28.0172V33.5668C44.177 35.8599 42.7912 37.9246 40.6705 38.7931L38.552 39.6616C35.871 40.7586 34.455 43.709 35.2761 46.4871L36.8796 51.9246C37.4011 53.6896 37.0283 55.5991 35.8839 57.0388L33.4011 60.1595C31.5735 62.4569 31.8106 65.7715 33.9464 67.7866C36.0742 69.7933 36.3212 73.0944 34.5046 75.3965C32.983 77.3433 32.8173 79.4664 33.5906 81.2864C33.6783 81.4931 33.4145 81.6834 33.249 81.5207C32.3257 80.6125 28.3766 76.6564 28.3322 76.6123C26.4535 74.7336 25.9432 71.6127 28.0391 68.9312C29.8576 66.6269 29.6067 63.3259 27.4809 61.3213C25.3451 59.3062 25.108 55.9916 26.9356 53.6942L29.4184 50.5735C30.5628 49.1338 30.9356 47.2243 30.4141 45.4593L28.8106 40.0215C27.9895 37.2435 29.4054 34.2931 32.0865 33.1961L34.205 32.3276C36.3257 31.459 37.7115 29.3944 37.7115 27.1013V21.5517C37.7115 9.64914 47.3606 0 59.2632 0H69.608C72.25 0 74.8059 0.479095 77.1791 1.36897Z" fill="#F0C144"/>
<path d="M59.58 57.3534C63.0701 59.5631 60.3427 64.9114 56.508 63.3756C48.6321 60.2213 43.0994 52.5265 43.0994 43.5622V40.2541C43.0994 39.3769 43.7567 38.642 44.6274 38.5429C45.428 38.4506 46.2912 38.3297 47.2065 38.17C48.4198 37.9584 49.5597 38.8308 49.6597 40.0584C50.3095 48.0411 54.2369 53.9704 59.58 57.3534Z" fill="#FFF3E4"/>
<path d="M53.831 75.1962C54.9312 76.0482 54.3489 77.8329 52.9573 77.8385C43.79 77.8751 36.8493 85.2346 36.8493 93.9096V100H32.97C32.0178 100 31.2458 99.2281 31.2458 98.276V89.8148C31.2458 81.095 38.2418 73.7437 47.4204 73.7437C48.7027 73.7286 49.9204 73.4441 51.0196 72.9441L51.0734 73.0605L53.831 75.1962Z" fill="url(#paint2_linear_461_3410)"/>
<path d="M75.0401 75.1962C73.9399 76.0482 74.5223 77.8329 75.9138 77.8385C85.0811 77.8751 92.0218 85.2346 92.0218 93.9096V100H95.9011C96.8533 100 97.6253 99.2281 97.6253 98.276V89.8148C97.6253 81.095 90.6294 73.7437 81.4507 73.7437C80.1684 73.7286 78.9507 73.4441 77.8516 72.9441L77.7977 73.0605L75.0401 75.1962Z" fill="url(#paint3_linear_461_3410)"/>
<path d="M63.3803 82.5881C64.0017 83.0691 64.8698 83.0691 65.4913 82.5881L77.7978 73.0605L77.8517 72.9441C78.9508 73.4441 80.1685 73.7286 81.4508 73.7437L73.9185 100H54.953L47.4207 73.7437C48.703 73.7286 49.9207 73.4441 51.0198 72.9441L51.0737 73.0605L63.3803 82.5881Z" fill="#D6F4FC"/>
<path d="M66.1599 82.0709V96.5515C66.1599 97.5041 65.3884 98.2757 64.4358 98.2757C63.4832 98.2757 62.7117 97.5041 62.7117 96.5515V82.0709L63.3798 82.5882C64.0026 83.0688 64.869 83.0688 65.4918 82.5882L66.1599 82.0709Z" fill="#BDEFFC"/>
<path d="M50.9907 77.9549C50.3474 78.0266 49.6198 78.1516 48.7525 78.3837L47.4207 73.7437C48.703 73.7286 49.9207 73.4441 51.0198 72.9441L51.0737 73.0605L52.1316 73.8799C53.7525 75.1353 53.0282 77.7275 50.9907 77.9549Z" fill="#E8F8FC"/>
<path d="M77.8811 77.9549C78.5244 78.0266 79.252 78.1516 80.1192 78.3837L81.4511 73.7437C80.1688 73.7286 78.9511 73.4441 77.852 72.9441L77.7981 73.0605L76.7401 73.8799C75.1192 75.1353 75.8436 77.7275 77.8811 77.9549Z" fill="#BDEFFC"/>
<path d="M72.8693 66.9008C67.5596 69.1234 61.7245 69.2958 56.0029 66.9008C56.2952 65.6883 56.2465 64.9029 56.2465 63.362L56.2788 63.2822C61.4689 65.4365 67.3932 65.4408 72.5934 63.2822L72.6258 63.362C72.6258 64.9036 72.5771 65.6887 72.8693 66.9008Z" fill="#FFD6A6"/>
<defs>
<linearGradient id="paint0_linear_461_3410" x1="11.5" y1="77.8933" x2="65.2479" y2="97.2062" gradientUnits="userSpaceOnUse">
<stop stop-color="#48A0F4"/>
<stop offset="1" stop-color="#215FD9"/>
</linearGradient>
<linearGradient id="paint1_linear_461_3410" x1="4.80415" y1="77.8933" x2="29.5978" y2="81.6151" gradientUnits="userSpaceOnUse">
<stop stop-color="#48A0F4"/>
<stop offset="1" stop-color="#215FD9"/>
</linearGradient>
<linearGradient id="paint2_linear_461_3410" x1="35.2587" y1="80.2718" x2="56.0254" y2="83.1894" gradientUnits="userSpaceOnUse">
<stop stop-color="#48A0F4"/>
<stop offset="1" stop-color="#215FD9"/>
</linearGradient>
<linearGradient id="paint3_linear_461_3410" x1="78.4782" y1="80.2718" x2="99.2449" y2="83.1894" gradientUnits="userSpaceOnUse">
<stop stop-color="#48A0F4"/>
<stop offset="1" stop-color="#215FD9"/>
</linearGradient>
</defs>
</svg>
