<svg width="96" height="100" viewBox="0 0 96 100" fill="none" xmlns="http://www.w3.org/2000/svg">
<path d="M81.6196 95.7922C79.1282 95.7922 77.1084 93.7724 77.1084 91.281V55.2234C77.1084 52.7319 79.1282 50.7122 81.6196 50.7122C84.1111 50.7122 86.1309 52.7319 86.1309 55.2234V91.2812C86.1309 93.7726 84.1111 95.7922 81.6196 95.7922Z" fill="#FED15B"/>
<path d="M70.6483 95.7922C68.1569 95.7922 66.1211 93.7724 66.1211 91.281V55.2234C66.1211 52.7319 68.1569 50.7122 70.6483 50.7122C73.1398 50.7122 75.1596 52.7319 75.1596 55.2234V91.2812C75.1596 93.7726 73.1398 95.7922 70.6483 95.7922Z" fill="#FED15B"/>
<path d="M77.3729 16.6262C81.6199 15.9377 84.5046 11.9368 83.8161 7.68982C83.1277 3.44286 79.1267 0.558124 74.8798 1.24659C70.6328 1.93505 67.7481 5.93601 68.4365 10.183C69.125 14.4299 73.1259 17.3147 77.3729 16.6262Z" fill="#FFDFBA"/>
<path d="M60.8853 53.7942L56.9941 55.6856C56.9941 57.7619 58.6773 59.4448 60.7534 59.4448C62.8295 59.4448 64.5126 57.7617 64.5126 55.6856L60.8853 53.7942Z" fill="#FFDFBA"/>
<path d="M80.0817 19.1973H72.3331L72.2446 19.6616C71.7737 22.1301 73.666 24.4175 76.179 24.4175C78.5509 24.4175 80.4031 22.368 80.1641 20.0083L80.0817 19.1973Z" fill="#FFDFBA"/>
<path d="M91.574 53.8674L87.7417 55.6857C87.7417 57.762 89.4248 59.445 91.5009 59.445C93.577 59.445 95.2601 57.7618 95.2601 55.6857L91.574 53.8674Z" fill="#FFDFBA"/>
<path d="M86.2255 19.1973H80.0819C80.1507 21.2739 78.2208 23.0354 76.2056 23.0354C74.0458 23.0354 72.4448 21.2805 72.3332 19.1973H66.0438C61.0785 19.1973 57.0186 23.168 56.9941 28.0678V55.6856H64.5126V28.0867C64.5162 27.3692 65.3234 26.7157 66.1211 26.7157V45.7384L67.0595 46.9867L66.1211 48.2229V55.2234H86.1306L86.1221 48.2136L85.5826 46.9715L86.1191 45.7293L86.0957 26.7157H86.2253C87.0155 26.7157 87.7382 27.3692 87.7418 28.0676V55.6854H95.2603V28.0489C95.2358 23.1682 91.1827 19.1973 86.2255 19.1973Z" fill="#86D6DD"/>
<path d="M66.1211 45.7383H72.2719V48.2226H66.1211V45.7383Z" fill="white"/>
<path d="M79.9561 45.7383H86.0939V48.2226H79.9561V45.7383Z" fill="white"/>
<path d="M84.3751 9.8749H82.3833V8.69059C82.3833 7.82965 81.6854 7.13184 80.8245 7.13184H71.3744C70.5134 7.13184 69.8156 7.82965 69.8156 8.69059V9.8749H68.0511C67.7067 9.8749 67.4277 10.1541 67.4277 10.4983V12.1438C67.4277 12.4882 67.7069 12.7672 68.0511 12.7672H69.8156V13.9515C69.8156 14.8124 70.5134 15.5103 71.3744 15.5103H80.8247C81.6856 15.5103 82.3834 14.8124 82.3834 13.9515V12.7672H84.3753C84.7197 12.7672 84.9987 12.488 84.9987 12.1438V10.4983C84.9985 10.1539 84.7195 9.8749 84.3751 9.8749Z" fill="#E9F5FF"/>
<path d="M21.0882 50.4529H10.3469C4.64157 50.4529 0 45.8111 0 40.1057V12.4858C0 6.78043 4.64157 2.13867 10.3469 2.13867H26.7875C32.4931 2.13867 37.1347 6.78024 37.1347 12.4858H33.1001C33.1001 9.005 30.2681 6.17324 26.7875 6.17324H10.3469C6.86613 6.17324 4.03457 9.005 4.03457 12.4858V40.1057C4.03457 43.5865 6.86633 46.4183 10.3469 46.4183H21.0882V50.4529Z" fill="#ABD1F3"/>
<path d="M50.9154 96.875C49.5921 96.875 48.519 95.8022 48.519 94.4787V70.4772C48.519 69.1537 49.5919 68.0808 50.9154 68.0808C52.2389 68.0808 53.3118 69.1537 53.3118 70.4772V94.4789C53.3118 95.8024 52.2387 96.875 50.9154 96.875Z" fill="#ABD1F3"/>
<path d="M45.9912 18.4423C45.9255 15.4698 43.9667 12.9416 41.2721 12.3518L29.6014 9.65117C26.9067 9.06112 24.1931 10.566 23.0635 13.2769L22.3816 14.9132C21.9088 16.0476 22.5325 17.3628 23.6599 17.6099L43.8835 22.1831C45.011 22.4299 46.0587 21.4805 46.0312 20.2367L45.9912 18.4423Z" fill="#ABD1F3"/>
<path d="M77.3568 72.0818C76.7065 72.0818 76.0499 71.8892 75.4765 71.4883L63.8849 63.3812H42.5036C40.6888 63.3812 39.2178 61.9099 39.2178 60.0951C39.2178 58.2803 40.6888 56.8091 42.5036 56.8091H64.9199C65.5937 56.8091 66.251 57.0162 66.8032 57.4024L79.243 66.1028C80.7302 67.1429 81.0927 69.1918 80.0525 70.6788C79.4133 71.5926 78.3933 72.0818 77.3568 72.0818Z" fill="#3C7CBB"/>
<path d="M41.5384 39.6009C40.3869 37.9859 38.1456 37.6113 36.5325 38.7639L30.0756 42.6691C28.4622 43.8217 28.0878 46.0652 29.2393 47.6799L39.4851 61.9047L53.9681 56.9741L41.5384 39.6009Z" fill="#3C7CBB"/>
<path d="M35.5545 35.5631C37.9114 31.8405 36.8043 26.912 33.0817 24.5551C29.3591 22.1982 24.4306 23.3053 22.0737 27.0279C19.7168 30.7505 20.8239 35.679 24.5465 38.0359C28.2691 40.3928 33.1976 39.2857 35.5545 35.5631Z" fill="#FFDFBA"/>
<path d="M58.1486 48.9214H58.1353L47.0381 48.9703L43.9422 46.252L40.5512 46.621C40.5044 46.5799 39.8979 50.5011 39.8979 50.5011L44.0058 54.108C44.5407 54.5777 45.2281 54.8365 45.9394 54.8365H45.9523L58.1609 54.7827C59.7794 54.7756 61.0856 53.4577 61.0785 51.8391C61.0715 50.2248 59.7609 48.9214 58.1486 48.9214Z" fill="#FFDFBA"/>
<path d="M43.9419 46.2522L38.6504 41.6062C37.4343 40.5382 35.5822 40.6585 34.5146 41.8748C33.4467 43.0911 33.5669 44.9428 34.7832 46.0106L39.8979 50.5016L43.9419 46.2522Z" fill="#3C7CBB"/>
<path d="M79.9971 85.3097C79.3106 85.3097 78.6184 85.1 78.0215 84.6642L61.2523 72.4209H37.6216C36.5285 72.4209 35.5038 71.8883 34.8758 70.9934L12.5048 39.1241C11.4403 37.6076 11.8066 35.5153 13.3231 34.4509C14.8393 33.3864 16.932 33.7525 17.9963 35.2692L39.3652 65.7111H62.3467C63.0578 65.7111 63.7506 65.9371 64.3251 66.3565L81.9781 79.245C83.4746 80.3377 83.8018 82.4363 82.7093 83.9328C82.0524 84.8325 81.0316 85.3096 79.9971 85.3097Z" fill="#ABD1F3"/>
<path d="M50.7936 92.0635C43.7805 92.0635 38.0952 95.4506 38.0952 97.0692C38.0952 98.6878 43.7805 100 50.7936 100C57.8067 100 63.492 98.6878 63.492 97.0692C63.492 95.4506 57.8067 92.0635 50.7936 92.0635Z" fill="#ABD1F3"/>
</svg>
