<svg width="100" height="100" viewBox="0 0 100 100" fill="none" xmlns="http://www.w3.org/2000/svg">
<path d="M62.4973 93.7549L60.6476 95.4882H39.1651L37.4985 93.7549L38.2489 93.0045C39.7693 91.4841 40.6234 89.4221 40.6234 87.2718V78.1226H59.3726V87.2718C59.3726 89.4219 60.2269 91.4841 61.7471 93.0045L62.4973 93.7549Z" fill="#4297EB"/>
<path d="M65.6247 93.7547H48.2876C48.9004 91.8298 48.5862 90.6925 48.6715 86.621C48.6715 85.866 49.2836 85.2539 50.0387 85.2539H59.3726V78.1226H40.6234V87.2716C40.6234 91.3464 37.7691 93.3797 37.4986 93.7547H34.3715C32.647 93.7547 31.249 95.1527 31.249 96.8772C31.249 98.6018 32.647 99.9998 34.3715 99.9998H65.6247C67.3493 99.9998 68.7473 98.6018 68.7473 96.8772C68.7473 95.1529 67.3493 93.7547 65.6247 93.7547Z" fill="#4297EB"/>
<path d="M98.6289 81.2302H1.36762C0.612572 81.2302 0.000488281 80.6182 0.000488281 79.8631V68.7476L2.982 65.7756H97.0147L99.9962 68.7476V79.8631C99.996 80.6182 99.384 81.2302 98.6289 81.2302Z" fill="#E9F5FF"/>
<path d="M99.9956 68.7475H0V1.36713C0 0.612083 0.612083 0 1.36713 0H98.6284C99.3835 0 99.9956 0.612083 99.9956 1.36713V68.7475Z" fill="#ABD1F3"/>
<path d="M92.3787 62.4905H16.0962L12.479 56.2312V12.5037L16.0962 6.24951H92.3787C93.1338 6.24951 93.7459 6.8616 93.7459 7.61664V61.1234C93.7459 61.8784 93.1338 62.4905 92.3787 62.4905Z" fill="#ABD1F3"/>
<path d="M6.25049 7.61664V61.1234C6.25049 61.8784 6.86257 62.4905 7.61762 62.4905H16.0966V6.24951H7.61762C6.86257 6.24951 6.25049 6.8616 6.25049 7.61664Z" fill="#ABD1F3"/>
<path d="M41.3899 14.0643C39.2253 14.0823 37.2229 14.7776 35.5831 15.9482C33.4746 17.4538 30.6386 17.4538 28.5301 15.9482C26.8903 14.7774 24.8878 14.0821 22.7233 14.0643C17.1552 14.0182 12.5476 18.5278 12.4798 24.0957C12.4452 26.9231 13.5672 29.4877 15.4009 31.3493H15.4007C17.3985 33.2971 18.609 35.9124 18.8008 38.6961L19.7222 52.0699C19.8838 54.413 21.8313 56.2311 24.1801 56.2311C26.5177 56.2311 28.4604 54.4292 28.6357 52.0983L29.6283 40.412C29.724 39.1416 30.7827 38.1594 32.0569 38.1594C33.331 38.1594 34.3898 39.1414 34.4855 40.412L35.478 52.0983C35.6534 54.4294 37.5961 56.2311 39.9337 56.2311C42.2822 56.2311 44.23 54.413 44.3915 52.0699L45.313 38.6957C45.5047 35.9122 46.715 33.2969 48.7128 31.3491C50.5463 29.4875 51.6684 26.9229 51.634 24.0955C51.5656 18.5278 46.958 14.0182 41.3899 14.0643Z" fill="white"/>
<path d="M27.7703 52.0704L26.8489 38.6966C26.6571 35.9129 25.4466 33.2976 23.4488 31.3498H23.449C21.6155 29.4882 20.4935 26.9234 20.5279 24.0962C20.5781 19.9815 23.1086 16.4471 26.6727 14.8999C25.4605 14.3742 24.1264 14.0765 22.7233 14.0648C17.1552 14.0187 12.5476 18.5283 12.4798 24.0962C12.4452 26.9236 13.5672 29.4882 15.4009 31.3498H15.4008C17.3985 33.2976 18.609 35.9129 18.8008 38.6966L19.7222 52.0704C19.8836 54.4135 21.8313 56.2316 24.1799 56.2316C25.9413 56.2316 27.4776 55.208 28.2033 53.7065C27.9621 53.2071 27.8106 52.6552 27.7703 52.0704Z" fill="#EDF8FF"/>
<path d="M86.1293 56.2314H72.5576L70.2896 53.0324V40.2054L72.5576 37.5029H86.1293C86.8844 37.5029 87.4964 38.115 87.4964 38.8701V54.8641C87.4964 55.6194 86.8844 56.2314 86.1293 56.2314Z" fill="#FFE177"/>
<path d="M62.4971 38.8701V54.8641C62.4971 55.6192 63.1092 56.2312 63.8642 56.2312H72.557V37.5029H63.8642C63.1092 37.5029 62.4971 38.115 62.4971 38.8701Z" fill="#FED15B"/>
<path d="M62.1308 19.6691H86.3972C87.2063 19.6691 87.8619 19.0134 87.8619 18.2043C87.8619 17.3951 87.2063 16.7395 86.3972 16.7395H62.1308C61.3217 16.7395 60.666 17.3951 60.666 18.2043C60.666 19.0134 61.3218 19.6691 62.1308 19.6691Z" fill="white"/>
<path d="M62.1308 25.736H86.3972C87.2063 25.736 87.8619 25.0803 87.8619 24.2712C87.8619 23.462 87.2063 22.8064 86.3972 22.8064H62.1308C61.3217 22.8064 60.666 23.462 60.666 24.2712C60.666 25.0803 61.3218 25.736 62.1308 25.736Z" fill="white"/>
<path d="M62.1308 31.8024H86.3972C87.2063 31.8024 87.8619 31.1467 87.8619 30.3376C87.8619 29.5284 87.2063 28.8728 86.3972 28.8728H62.1308C61.3217 28.8728 60.666 29.5284 60.666 30.3376C60.666 31.1467 61.3218 31.8024 62.1308 31.8024Z" fill="white"/>
</svg>
