<svg width="32" height="25" viewBox="0 0 32 25" fill="none" xmlns="http://www.w3.org/2000/svg">
<path fill-rule="evenodd" clip-rule="evenodd" d="M30.5044 12.5C30.5044 12.7815 30.4896 13.0619 30.4605 13.3406C30.0201 13.0247 29.5554 12.7245 29.0682 12.4434C25.595 10.4393 21.8802 9.92546 19.2981 10.8398C21.0684 9.13645 22.3059 6.14935 22.5128 2.6785C27.3728 4.54103 30.5044 8.40167 30.5044 12.5ZM21.1317 0.656775C21.2245 0.681325 21.317 0.706524 21.4091 0.732363C27.5838 2.46495 32 7.07956 32 12.5C32 17.1101 28.8055 21.1373 24.0516 23.3043C23.4663 23.5711 22.8574 23.8097 22.2279 24.0177L22.2183 24.0209C20.3067 24.6514 18.2054 25 16 25C13.9113 25 11.9161 24.6873 10.0869 24.1186C10.0419 24.1046 9.99693 24.0905 9.95209 24.0762C9.36487 23.8887 8.79508 23.6748 8.24518 23.4363C3.32789 21.3036 0 17.2054 0 12.5C0 7.48786 3.77592 3.16471 9.22665 1.17205C9.22665 1.17205 9.22665 1.17204 9.22665 1.17204C9.71943 0.991892 10.2259 0.830794 10.7445 0.689955C10.7445 0.689957 10.7445 0.689958 10.7445 0.68996C12.3906 0.242916 14.159 0 16 0C17.7949 0 19.5208 0.230908 21.1317 0.656775ZM10.7277 2.25836C12.3407 1.78106 14.1126 1.51515 16 1.51515C17.7967 1.51515 19.4887 1.75611 21.0385 2.19099C20.9531 4.68035 20.2901 6.86054 19.327 8.40882C18.2817 10.0894 17.0257 10.8382 15.8819 10.8382C14.7382 10.8382 13.4821 10.0894 12.4368 8.40882C11.4824 6.87453 10.8227 4.71967 10.7277 2.25836ZM9.25663 2.76887C4.52839 4.66388 1.49563 8.46685 1.49563 12.5C1.49563 12.8706 1.52124 13.2393 1.57142 13.6047C2.00744 13.2927 2.46715 12.9961 2.94883 12.7181C6.46149 10.6913 10.2213 10.1887 12.8065 11.1463C10.8714 9.52424 9.49369 6.41927 9.25663 2.76887ZM14.4775 12.1149C14.8595 12.447 15.1814 12.836 15.432 13.2816C16.9779 16.0311 15.311 20.0491 11.6678 22.9913C13.0209 23.3107 14.4726 23.4848 16 23.4848C17.6327 23.4848 19.179 23.2859 20.6106 22.9232C16.7866 19.9649 15.0027 15.8213 16.5851 13.0069C16.7654 12.6863 16.9825 12.395 17.2325 12.1331C16.7963 12.2775 16.3446 12.3534 15.8819 12.3534C15.4001 12.3534 14.9303 12.2711 14.4775 12.1149ZM28.328 13.76C28.9755 14.1336 29.5748 14.5414 30.1225 14.9726C29.141 18.1225 26.3299 20.8875 22.413 22.3594C20.491 21.0878 19.0685 19.5181 18.2634 17.9918C17.3393 16.2399 17.3187 14.7636 17.8847 13.7568C18.4508 12.75 19.7148 12.015 21.6736 11.9266C23.6094 11.8392 25.9979 12.4155 28.328 13.76ZM1.95245 15.202C3.02137 18.3291 5.89832 21.0501 9.86173 22.4598C11.6535 21.2207 12.985 19.7238 13.7537 18.2665C14.6778 16.5146 14.6984 15.0383 14.1324 14.0315C13.5663 13.0247 12.3023 12.2897 10.3435 12.2013C8.40771 12.1139 6.01915 12.6902 3.68906 14.0347C3.06435 14.3952 2.48437 14.7875 1.95245 15.202Z" fill="white"/>
</svg>
