<svg width="239" height="61" viewBox="0 0 239 61" fill="none" xmlns="http://www.w3.org/2000/svg">
<path d="M117.204 42.5446L117.172 26.1345L109.043 39.8095H107.565L99.4355 26.2311V42.5446H96.3508V20.021H98.9856L108.368 35.8518L117.622 20.021H120.257L120.289 42.5446H117.204Z" fill="#212B36"/>
<path d="M143.362 39.7452V42.5446H127.039V20.021H142.912V22.8204H130.252V29.7383H141.53V32.4733H130.252V39.7452H143.362Z" fill="#212B36"/>
<path d="M148.565 20.021H158.044C160.421 20.021 162.531 20.4929 164.374 21.4368C166.216 22.3806 167.64 23.7106 168.647 25.4267C169.675 27.1213 170.189 29.0733 170.189 31.2828C170.189 33.4922 169.675 35.455 168.647 37.1711C167.64 38.8657 166.216 40.1849 164.374 41.1288C162.531 42.0726 160.421 42.5446 158.044 42.5446H148.565V20.021ZM157.851 39.7452C159.672 39.7452 161.267 39.3913 162.638 38.6834C164.031 37.9755 165.102 36.9887 165.852 35.7231C166.601 34.4361 166.976 32.956 166.976 31.2828C166.976 29.6096 166.601 28.1402 165.852 26.8746C165.102 25.5875 164.031 24.5901 162.638 23.8822C161.267 23.1743 159.672 22.8204 157.851 22.8204H151.778V39.7452H157.851Z" fill="#212B36"/>
<path d="M191.434 39.7452V42.5446H175.111V20.021H190.984V22.8204H178.324V29.7383H189.602V32.4733H178.324V39.7452H191.434Z" fill="#212B36"/>
<path d="M203.963 32.5377L199.85 36.7206V42.5446H196.637V20.021H199.85V32.602L212.06 20.021H215.723L206.116 30.1566L216.333 42.5446H212.574L203.963 32.5377Z" fill="#212B36"/>
<path d="M233.152 36.9137H221.199L218.725 42.5446H215.415L225.601 20.021H228.782L239 42.5446H235.626L233.152 36.9137ZM232.027 34.3395L227.176 23.303L222.324 34.3395H232.027Z" fill="#212B36"/>
<path fill-rule="evenodd" clip-rule="evenodd" d="M75.1479 30.3442C75.1479 31.0276 75.1115 31.7083 75.0399 32.3848C73.9549 31.618 72.8101 30.8893 71.61 30.2069C63.0537 25.3418 53.9021 24.0944 47.5412 26.3141C51.9023 22.1791 54.9508 14.9278 55.4607 6.50217C67.4333 11.0235 75.1479 20.3954 75.1479 30.3442ZM52.0582 1.59435C52.2869 1.65394 52.5148 1.71511 52.7416 1.77784C67.9532 5.98376 78.8325 17.1859 78.8325 30.3442C78.8325 41.5355 70.9629 51.3117 59.2514 56.5721C57.8096 57.2197 56.3096 57.7989 54.7588 58.3039L54.7351 58.3116C50.0258 59.8422 44.8494 60.6885 39.4162 60.6885C34.2707 60.6885 29.3555 59.9295 24.8492 58.5489C24.7383 58.5149 24.6276 58.4806 24.5171 58.4458C23.0705 57.9908 21.6668 57.4715 20.3121 56.8925C8.19829 51.7152 0 41.7668 0 30.3442C0 18.1771 9.30204 7.68245 22.73 2.84519C22.73 2.84519 22.73 2.84518 22.73 2.84517C23.9439 2.40786 25.1916 2.01678 26.4692 1.67489C26.4692 1.6749 26.4692 1.6749 26.4692 1.67491C30.5244 0.589689 34.8809 0 39.4162 0C43.8381 0 48.0898 0.560538 52.0582 1.59435ZM26.428 5.48225C30.4014 4.32359 34.7665 3.67809 39.4162 3.67809C43.8424 3.67809 48.0107 4.26302 51.8287 5.31872C51.6184 11.3617 49.9849 16.6542 47.6124 20.4128C45.0372 24.4923 41.9429 26.3102 39.1253 26.3102C36.3077 26.3102 33.2134 24.4923 30.6383 20.4128C28.2872 16.6882 26.6618 11.4572 26.428 5.48225ZM22.8038 6.72154C11.1558 11.3217 3.68452 20.5536 3.68452 30.3442C3.68452 31.2439 3.7476 32.1388 3.87122 33.0259C4.94535 32.2685 6.07786 31.5485 7.26448 30.8738C15.918 25.9535 25.1803 24.7335 31.549 27.058C26.7818 23.1205 23.3878 15.583 22.8038 6.72154ZM35.6656 29.4095C36.6067 30.2155 37.3996 31.16 38.0168 32.2417C41.8252 38.9162 37.7188 48.67 28.7439 55.8124C32.0771 56.5877 35.6535 57.0104 39.4162 57.0104C43.4384 57.0104 47.2476 56.5274 50.7746 55.647C41.3541 48.4655 36.9594 38.4069 40.8577 31.5748C41.3017 30.7966 41.8367 30.0894 42.4524 29.4537C41.378 29.8042 40.2652 29.9883 39.1253 29.9883C37.9384 29.9883 36.781 29.7887 35.6656 29.4095ZM69.7865 33.4029C71.3814 34.3098 72.8581 35.2997 74.2072 36.3466C71.7894 43.993 64.864 50.7052 55.2147 54.2783C50.4798 51.1915 46.9755 47.3809 44.9922 43.6758C42.7157 39.423 42.6648 35.8392 44.0593 33.3952C45.4538 30.9511 48.5676 29.1668 53.3932 28.9522C58.162 28.7401 64.0463 30.1391 69.7865 33.4029ZM4.80988 36.9035C7.4432 44.4945 14.5306 51.0999 24.2945 54.5222C28.7085 51.5141 31.9887 47.8802 33.8823 44.3427C36.1589 40.0899 36.2098 36.5061 34.8152 34.0621C33.4207 31.618 30.3069 29.8337 25.4813 29.6191C20.7125 29.407 14.8283 30.806 9.08806 34.0698C7.54906 34.9449 6.12028 35.8972 4.80988 36.9035Z" fill="#C1A178"/>
</svg>
