<svg width="166" height="42" viewBox="0 0 166 42" fill="none" xmlns="http://www.w3.org/2000/svg">
<path d="M81.1122 29.4433L81.09 18.0866L75.464 27.5506H74.4411L68.8152 18.1534V29.4433H66.6804V13.8557H68.5039L74.9971 24.8116L81.4013 13.8557H83.2247L83.247 29.4433H81.1122Z" fill="white"/>
<path d="M99.2149 27.506V29.4433H87.9185V13.8557H98.9036V15.793H90.1422V20.5807H97.9474V22.4734H90.1422V27.506H99.2149Z" fill="white"/>
<path d="M102.816 13.8557H109.375C111.021 13.8557 112.481 14.1823 113.756 14.8355C115.031 15.4887 116.017 16.4091 116.714 17.5967C117.425 18.7695 117.781 20.1205 117.781 21.6495C117.781 23.1786 117.425 24.5369 116.714 25.7246C116.017 26.8974 115.031 27.8103 113.756 28.4635C112.481 29.1167 111.021 29.4433 109.375 29.4433H102.816V13.8557ZM109.242 27.506C110.502 27.506 111.607 27.2611 112.555 26.7712C113.519 26.2813 114.26 25.5984 114.779 24.7225C115.298 23.8318 115.557 22.8075 115.557 21.6495C115.557 20.4916 115.298 19.4747 114.779 18.5988C114.26 17.7081 113.519 17.0178 112.555 16.5279C111.607 16.038 110.502 15.793 109.242 15.793H105.039V27.506H109.242Z" fill="white"/>
<path d="M132.483 27.506V29.4433H121.187V13.8557H132.172V15.793H123.411V20.5807H131.216V22.4734H123.411V27.506H132.483Z" fill="white"/>
<path d="M141.154 22.518L138.308 25.4128V29.4433H136.084V13.8557H138.308V22.5625L146.758 13.8557H149.293L142.644 20.8701L149.715 29.4433H147.114L141.154 22.518Z" fill="white"/>
<path d="M161.355 25.5464H153.083L151.371 29.4433H149.08L156.129 13.8557H158.331L165.402 29.4433H163.067L161.355 25.5464ZM160.577 23.765L157.219 16.1271L153.861 23.765H160.577Z" fill="white"/>
<path fill-rule="evenodd" clip-rule="evenodd" d="M52.0068 21C52.0068 21.4729 51.9816 21.944 51.932 22.4122C51.1811 21.8815 50.3889 21.3772 49.5584 20.905C43.6369 17.538 37.3035 16.6748 32.9013 18.2109C35.9195 15.3492 38.0292 10.3309 38.3821 4.49989C46.6678 7.62893 52.0068 14.1148 52.0068 21ZM36.0273 1.10338C36.1856 1.14463 36.3433 1.18696 36.5003 1.23037C47.0276 4.14111 54.5567 11.8937 54.5567 21C54.5567 28.745 49.1105 35.5107 41.0055 39.1512C40.0077 39.5994 38.9695 40.0003 37.8963 40.3497L37.8799 40.355C34.6208 41.4143 31.0384 42 27.2784 42C23.7174 42 20.3158 41.4747 17.1971 40.5193C17.1203 40.4958 17.0437 40.472 16.9673 40.4479C15.9661 40.133 14.9947 39.7736 14.0572 39.373C5.6737 35.79 0 28.9051 0 21C0 12.5796 6.43756 5.31671 15.7305 1.96904C15.7305 1.96904 15.7305 1.96903 15.7305 1.96903C16.5706 1.66638 17.4341 1.39573 18.3183 1.15912C18.3183 1.15913 18.3183 1.15913 18.3183 1.15913C21.1247 0.4081 24.1396 0 27.2784 0C30.3385 0 33.281 0.387925 36.0273 1.10338ZM18.2897 3.79404C21.0395 2.99218 24.0605 2.54545 27.2784 2.54545C30.3416 2.54545 33.2262 2.95026 35.8685 3.68087C35.723 7.86298 34.5925 11.5257 32.9506 14.1268C31.1684 16.9501 29.027 18.2082 27.077 18.2082C25.1271 18.2082 22.9856 16.9501 21.2035 14.1268C19.5764 11.5492 18.4516 7.92905 18.2897 3.79404ZM15.7816 4.6517C7.72044 7.83531 2.5499 14.2243 2.5499 21C2.5499 21.6226 2.59356 22.242 2.67911 22.8559C3.42247 22.3317 4.20624 21.8334 5.02745 21.3665C11.0162 17.9613 17.4263 17.117 21.8338 18.7257C18.5346 16.0007 16.1858 10.7844 15.7816 4.6517ZM24.6827 20.3531C25.334 20.9109 25.8827 21.5645 26.3099 22.3131C28.9455 26.9323 26.1036 33.6825 19.8924 38.6254C22.1992 39.162 24.6743 39.4545 27.2784 39.4545C30.0619 39.4545 32.6981 39.1203 35.139 38.511C28.6195 33.541 25.5781 26.5798 28.2759 21.8516C28.5832 21.313 28.9535 20.8236 29.3796 20.3837C28.636 20.6262 27.8659 20.7537 27.077 20.7537C26.2556 20.7537 25.4546 20.6155 24.6827 20.3531ZM48.2963 23.1168C49.4002 23.7444 50.4221 24.4295 51.3557 25.154C49.6825 30.4457 44.8897 35.091 38.2118 37.5638C34.935 35.4276 32.5098 32.7903 31.1372 30.2262C29.5618 27.283 29.5265 24.8028 30.4916 23.1114C31.4567 21.42 33.6117 20.1852 36.9513 20.0366C40.2515 19.8898 44.3238 20.858 48.2963 23.1168ZM3.32872 25.5394C5.15113 30.7928 10.056 35.3642 16.8132 37.7325C19.868 35.6508 22.1381 33.1359 23.4486 30.6878C25.0241 27.7445 25.0593 25.2644 24.0942 23.573C23.1291 21.8815 20.9741 20.6467 17.6346 20.4981C14.3343 20.3513 10.262 21.3195 6.28947 23.5783C5.2244 24.1839 4.23559 24.843 3.32872 25.5394Z" fill="white"/>
</svg>
