<svg width="1330" height="209" viewBox="0 0 1330 209" fill="none" xmlns="http://www.w3.org/2000/svg">
<path d="M194.429 209L194.129 56.7286L118.335 183.621H104.554L28.7598 57.6243V209H0V0H24.5657L112.044 146.897L198.323 0H222.889L223.188 209H194.429Z" fill="#F8F8F5"/>
<path d="M438.311 183.024V209H286.124V0H434.117V25.9757H316.082V90.1686H421.235V115.547H316.082V183.024H438.311Z" fill="#F8F8F5"/>
<path d="M486.82 0H575.197C597.366 0 617.038 4.37905 634.214 13.1371C651.391 21.8952 664.672 34.2362 674.059 50.16C683.646 65.8848 688.439 83.9981 688.439 104.5C688.439 125.002 683.646 143.215 674.059 159.139C664.672 174.863 651.391 187.105 634.214 195.863C617.038 204.621 597.366 209 575.197 209H486.82V0ZM573.399 183.024C590.376 183.024 605.255 179.74 618.037 173.171C631.019 166.603 641.005 157.447 647.995 145.703C654.985 133.76 658.481 120.026 658.481 104.5C658.481 88.9743 654.985 75.3395 647.995 63.5957C641.005 51.6529 631.019 42.3971 618.037 35.8286C605.255 29.26 590.376 25.9757 573.399 25.9757H516.779V183.024H573.399Z" fill="#F8F8F5"/>
<path d="M886.514 183.024V209H734.326V0H882.32V25.9757H764.284V90.1686H869.438V115.547H764.284V183.024H886.514Z" fill="#F8F8F5"/>
<path d="M1003.33 116.144L964.981 154.959V209H935.023V0H964.981V116.741L1078.82 0H1112.97L1023.4 94.05L1118.67 209H1083.62L1003.33 116.144Z" fill="#F8F8F5"/>
<path d="M1275.48 156.75H1164.03L1140.96 209H1110.11L1205.07 0H1234.73L1330 209H1298.54L1275.48 156.75ZM1264.99 132.864L1219.75 30.4543L1174.52 132.864H1264.99Z" fill="#F8F8F5"/>
</svg>
