<svg width="24" height="18" viewBox="0 0 24 18" fill="none" xmlns="http://www.w3.org/2000/svg">
<path d="M15 1.5C15.3978 1.5 15.7794 1.65804 16.0607 1.93934C16.342 2.22064 16.5 2.60218 16.5 3V15C16.5 15.3978 16.342 15.7794 16.0607 16.0607C15.7794 16.342 15.3978 16.5 15 16.5H9C8.60218 16.5 8.22064 16.342 7.93934 16.0607C7.65804 15.7794 7.5 15.3978 7.5 15V3C7.5 2.60218 7.65804 2.22064 7.93934 1.93934C8.22064 1.65804 8.60218 1.5 9 1.5H15ZM9 0C8.20435 0 7.44129 0.31607 6.87868 0.87868C6.31607 1.44129 6 2.20435 6 3V15C6 15.7956 6.31607 16.5587 6.87868 17.1213C7.44129 17.6839 8.20435 18 9 18H15C15.7956 18 16.5587 17.6839 17.1213 17.1213C17.6839 16.5587 18 15.7956 18 15V3C18 2.20435 17.6839 1.44129 17.1213 0.87868C16.5587 0.31607 15.7956 0 15 0H9Z" fill="#4297EB"/>
<path d="M12 15C12.3978 15 12.7794 14.842 13.0607 14.5607C13.342 14.2794 13.5 13.8978 13.5 13.5C13.5 13.1022 13.342 12.7206 13.0607 12.4393C12.7794 12.158 12.3978 12 12 12C11.6022 12 11.2207 12.158 10.9394 12.4393C10.658 12.7206 10.5 13.1022 10.5 13.5C10.5 13.8978 10.658 14.2794 10.9394 14.5607C11.2207 14.842 11.6022 15 12 15ZM2.39851 3.087C2.4856 3.13308 2.56275 3.19586 2.62556 3.27176C2.68837 3.34766 2.73562 3.43519 2.76459 3.52936C2.79356 3.62352 2.8037 3.72248 2.79442 3.82056C2.78514 3.91864 2.75663 4.01394 2.71051 4.101C1.91288 5.6106 1.49726 7.29263 1.50001 9C1.50001 10.77 1.93801 12.438 2.71051 13.899C2.8036 14.0748 2.82303 14.2805 2.76452 14.4706C2.70601 14.6608 2.57435 14.8199 2.39851 14.913C2.22267 15.0061 2.01706 15.0255 1.82689 14.967C1.63673 14.9085 1.4776 14.7768 1.38451 14.601C0.472548 12.8751 -0.00280132 10.952 1.24191e-05 9C1.24191e-05 6.9795 0.501012 5.0715 1.38451 3.399C1.43059 3.31192 1.49337 3.23476 1.56927 3.17195C1.64517 3.10914 1.73271 3.0619 1.82687 3.03292C1.92104 3.00395 2.01999 2.99381 2.11807 3.00309C2.21616 3.01237 2.31145 3.04088 2.39851 3.087ZM21.6015 3.087C21.6886 3.04088 21.7839 3.01237 21.882 3.00309C21.98 2.99381 22.079 3.00395 22.1732 3.03292C22.2673 3.0619 22.3549 3.10914 22.4308 3.17195C22.5067 3.23476 22.5694 3.31192 22.6155 3.399C23.5275 5.1249 24.0029 7.04794 24 9C24.0029 10.9521 23.5275 12.8751 22.6155 14.601C22.5224 14.7768 22.3633 14.9085 22.1731 14.967C21.983 15.0255 21.7774 15.0061 21.6015 14.913C21.4257 14.8199 21.294 14.6608 21.2355 14.4706C21.177 14.2805 21.1964 14.0748 21.2895 13.899C22.0871 12.3894 22.5028 10.7074 22.5 9C22.5 7.23 22.062 5.562 21.2895 4.101C21.2434 4.01394 21.2149 3.91864 21.2056 3.82056C21.1963 3.72248 21.2065 3.62352 21.2354 3.52936C21.2644 3.43519 21.3117 3.34766 21.3745 3.27176C21.4373 3.19586 21.5144 3.13308 21.6015 3.087ZM4.58551 5.301C4.67734 5.3368 4.76121 5.39036 4.83233 5.4586C4.90345 5.52684 4.96042 5.60843 4.99998 5.6987C5.03954 5.78897 5.06093 5.88616 5.06291 5.9847C5.06488 6.08324 5.04742 6.18121 5.01151 6.273C4.67242 7.14214 4.49893 8.06705 4.50001 9C4.50001 9.963 4.68001 10.8825 5.01001 11.727C5.05187 11.8197 5.07443 11.9199 5.07633 12.0216C5.07823 12.1233 5.05942 12.2244 5.02105 12.3186C4.98268 12.4128 4.92555 12.4982 4.85314 12.5696C4.78072 12.641 4.69454 12.697 4.59982 12.734C4.5051 12.7711 4.40383 12.7885 4.30217 12.7852C4.20051 12.782 4.10058 12.758 4.00846 12.7149C3.91634 12.6718 3.83396 12.6103 3.76632 12.5344C3.69868 12.4584 3.6472 12.3695 3.61501 12.273C3.20771 11.2299 2.99913 10.1198 3.00001 9C3.00001 7.8465 3.21751 6.7425 3.61501 5.727C3.68734 5.54191 3.83016 5.39308 4.01213 5.31321C4.19409 5.23334 4.40031 5.22895 4.58551 5.301ZM19.4145 5.301C19.5063 5.26509 19.6043 5.24763 19.7028 5.24961C19.8014 5.25159 19.8985 5.27297 19.9888 5.31253C20.0791 5.3521 20.1607 5.40907 20.2289 5.48018C20.2972 5.5513 20.3507 5.63517 20.3865 5.727C20.7825 6.7425 21 7.8465 21 9C21 10.1535 20.7825 11.2575 20.385 12.273C20.3059 12.4482 20.1625 12.5864 19.9844 12.6589C19.8063 12.7315 19.6072 12.7329 19.4281 12.6628C19.249 12.5927 19.1037 12.4565 19.0222 12.2824C18.9407 12.1082 18.9292 11.9094 18.99 11.727C19.32 10.8825 19.5 9.963 19.5 9C19.5 8.037 19.32 7.1175 18.99 6.273C18.9174 6.08781 18.9213 5.88137 19.001 5.69908C19.0806 5.5168 19.2293 5.3736 19.4145 5.301Z" fill="#4297EB"/>
</svg>
